<?xml version="1.0" standalone="no"?>
 <!DOCTYPE svg PUBLIC "-//W3C//DTD SVG 1.1//EN" 
 "http://www.w3.org/Graphics/SVG/1.1/DTD/svg11.dtd"> 
<svg
  xmlns:svg="http://www.w3.org/2000/svg"
  xmlns="http://www.w3.org/2000/svg"
  xmlns:xlink="http://www.w3.org/1999/xlink"
  version="1.1"
  width="297.002200mm" height="210.007200mm" viewBox="0.000000 0.000000 297.002200 210.007200">
<title>SVG Image created as solder_masks-F_Mask.svg date 2024/03/01 17:03:33 </title>
  <desc>Image generated by PCBNEW </desc>
<g style="fill:#000000; fill-opacity:1.000000;stroke:#000000; stroke-opacity:1.000000;
stroke-linecap:round; stroke-linejoin:round;"
 transform="translate(0 0) scale(1 1)">
</g>
<g style="fill:none; 
stroke:#000000; stroke-width:0.500000; stroke-opacity:1; 
stroke-linecap:round; stroke-linejoin:round;">
<text x="76.088941" y="90.507450"
textLength="15.766666" font-size="2.666666" lengthAdjust="spacingAndGlyphs"
text-anchor="start" opacity="0">NEO-M8P</text>
<g class="stroked-text"><desc>NEO-M8P</desc>
<path d="M76.894078 90.236688
L76.894078 88.236688
" />
<path d="M76.894078 88.236688
L78.036935 90.236688
" />
<path d="M78.036935 90.236688
L78.036935 88.236688
" />
<path d="M78.989316 89.189069
L79.655983 89.189069
" />
<path d="M79.941697 90.236688
L78.989316 90.236688
" />
<path d="M78.989316 90.236688
L78.989316 88.236688
" />
<path d="M78.989316 88.236688
L79.941697 88.236688
" />
<path d="M81.179792 88.236688
L81.560745 88.236688
" />
<path d="M81.560745 88.236688
L81.751221 88.331926
" />
<path d="M81.751221 88.331926
L81.941697 88.522402
" />
<path d="M81.941697 88.522402
L82.036935 88.903354
" />
<path d="M82.036935 88.903354
L82.036935 89.570021
" />
<path d="M82.036935 89.570021
L81.941697 89.950973
" />
<path d="M81.941697 89.950973
L81.751221 90.141450
" />
<path d="M81.751221 90.141450
L81.560745 90.236688
" />
<path d="M81.560745 90.236688
L81.179792 90.236688
" />
<path d="M81.179792 90.236688
L80.989316 90.141450
" />
<path d="M80.989316 90.141450
L80.798840 89.950973
" />
<path d="M80.798840 89.950973
L80.703602 89.570021
" />
<path d="M80.703602 89.570021
L80.703602 88.903354
" />
<path d="M80.703602 88.903354
L80.798840 88.522402
" />
<path d="M80.798840 88.522402
L80.989316 88.331926
" />
<path d="M80.989316 88.331926
L81.179792 88.236688
" />
<path d="M82.894078 89.474783
L84.417888 89.474783
" />
<path d="M85.370268 90.236688
L85.370268 88.236688
" />
<path d="M85.370268 88.236688
L86.036935 89.665259
" />
<path d="M86.036935 89.665259
L86.703601 88.236688
" />
<path d="M86.703601 88.236688
L86.703601 90.236688
" />
<path d="M87.941696 89.093830
L87.751220 88.998592
" />
<path d="M87.751220 88.998592
L87.655982 88.903354
" />
<path d="M87.655982 88.903354
L87.560744 88.712878
" />
<path d="M87.560744 88.712878
L87.560744 88.617640
" />
<path d="M87.560744 88.617640
L87.655982 88.427164
" />
<path d="M87.655982 88.427164
L87.751220 88.331926
" />
<path d="M87.751220 88.331926
L87.941696 88.236688
" />
<path d="M87.941696 88.236688
L88.322649 88.236688
" />
<path d="M88.322649 88.236688
L88.513125 88.331926
" />
<path d="M88.513125 88.331926
L88.608363 88.427164
" />
<path d="M88.608363 88.427164
L88.703601 88.617640
" />
<path d="M88.703601 88.617640
L88.703601 88.712878
" />
<path d="M88.703601 88.712878
L88.608363 88.903354
" />
<path d="M88.608363 88.903354
L88.513125 88.998592
" />
<path d="M88.513125 88.998592
L88.322649 89.093830
" />
<path d="M88.322649 89.093830
L87.941696 89.093830
" />
<path d="M87.941696 89.093830
L87.751220 89.189069
" />
<path d="M87.751220 89.189069
L87.655982 89.284307
" />
<path d="M87.655982 89.284307
L87.560744 89.474783
" />
<path d="M87.560744 89.474783
L87.560744 89.855735
" />
<path d="M87.560744 89.855735
L87.655982 90.046211
" />
<path d="M87.655982 90.046211
L87.751220 90.141450
" />
<path d="M87.751220 90.141450
L87.941696 90.236688
" />
<path d="M87.941696 90.236688
L88.322649 90.236688
" />
<path d="M88.322649 90.236688
L88.513125 90.141450
" />
<path d="M88.513125 90.141450
L88.608363 90.046211
" />
<path d="M88.608363 90.046211
L88.703601 89.855735
" />
<path d="M88.703601 89.855735
L88.703601 89.474783
" />
<path d="M88.703601 89.474783
L88.608363 89.284307
" />
<path d="M88.608363 89.284307
L88.513125 89.189069
" />
<path d="M88.513125 89.189069
L88.322649 89.093830
" />
<path d="M89.560744 90.236688
L89.560744 88.236688
" />
<path d="M89.560744 88.236688
L90.322649 88.236688
" />
<path d="M90.322649 88.236688
L90.513125 88.331926
" />
<path d="M90.513125 88.331926
L90.608363 88.427164
" />
<path d="M90.608363 88.427164
L90.703601 88.617640
" />
<path d="M90.703601 88.617640
L90.703601 88.903354
" />
<path d="M90.703601 88.903354
L90.608363 89.093830
" />
<path d="M90.608363 89.093830
L90.513125 89.189069
" />
<path d="M90.513125 89.189069
L90.322649 89.284307
" />
<path d="M90.322649 89.284307
L89.560744 89.284307
" />
</g><text x="141.265740" y="91.438650"
textLength="13.766666" font-size="2.666666" lengthAdjust="spacingAndGlyphs"
text-anchor="start" opacity="0">CAM-M8</text>
<g class="stroked-text"><desc>CAM-M8</desc>
<path d="M143.213734 90.977411
L143.118496 91.072650
" />
<path d="M143.118496 91.072650
L142.832782 91.167888
" />
<path d="M142.832782 91.167888
L142.642306 91.167888
" />
<path d="M142.642306 91.167888
L142.356591 91.072650
" />
<path d="M142.356591 91.072650
L142.166115 90.882173
" />
<path d="M142.166115 90.882173
L142.070877 90.691697
" />
<path d="M142.070877 90.691697
L141.975639 90.310745
" />
<path d="M141.975639 90.310745
L141.975639 90.025030
" />
<path d="M141.975639 90.025030
L142.070877 89.644078
" />
<path d="M142.070877 89.644078
L142.166115 89.453602
" />
<path d="M142.166115 89.453602
L142.356591 89.263126
" />
<path d="M142.356591 89.263126
L142.642306 89.167888
" />
<path d="M142.642306 89.167888
L142.832782 89.167888
" />
<path d="M142.832782 89.167888
L143.118496 89.263126
" />
<path d="M143.118496 89.263126
L143.213734 89.358364
" />
<path d="M143.975639 90.596459
L144.928020 90.596459
" />
<path d="M143.785163 91.167888
L144.451829 89.167888
" />
<path d="M144.451829 89.167888
L145.118496 91.167888
" />
<path d="M145.785163 91.167888
L145.785163 89.167888
" />
<path d="M145.785163 89.167888
L146.451830 90.596459
" />
<path d="M146.451830 90.596459
L147.118496 89.167888
" />
<path d="M147.118496 89.167888
L147.118496 91.167888
" />
<path d="M148.070877 90.405983
L149.594687 90.405983
" />
<path d="M150.547067 91.167888
L150.547067 89.167888
" />
<path d="M150.547067 89.167888
L151.213734 90.596459
" />
<path d="M151.213734 90.596459
L151.880400 89.167888
" />
<path d="M151.880400 89.167888
L151.880400 91.167888
" />
<path d="M153.118495 90.025030
L152.928019 89.929792
" />
<path d="M152.928019 89.929792
L152.832781 89.834554
" />
<path d="M152.832781 89.834554
L152.737543 89.644078
" />
<path d="M152.737543 89.644078
L152.737543 89.548840
" />
<path d="M152.737543 89.548840
L152.832781 89.358364
" />
<path d="M152.832781 89.358364
L152.928019 89.263126
" />
<path d="M152.928019 89.263126
L153.118495 89.167888
" />
<path d="M153.118495 89.167888
L153.499448 89.167888
" />
<path d="M153.499448 89.167888
L153.689924 89.263126
" />
<path d="M153.689924 89.263126
L153.785162 89.358364
" />
<path d="M153.785162 89.358364
L153.880400 89.548840
" />
<path d="M153.880400 89.548840
L153.880400 89.644078
" />
<path d="M153.880400 89.644078
L153.785162 89.834554
" />
<path d="M153.785162 89.834554
L153.689924 89.929792
" />
<path d="M153.689924 89.929792
L153.499448 90.025030
" />
<path d="M153.499448 90.025030
L153.118495 90.025030
" />
<path d="M153.118495 90.025030
L152.928019 90.120269
" />
<path d="M152.928019 90.120269
L152.832781 90.215507
" />
<path d="M152.832781 90.215507
L152.737543 90.405983
" />
<path d="M152.737543 90.405983
L152.737543 90.786935
" />
<path d="M152.737543 90.786935
L152.832781 90.977411
" />
<path d="M152.832781 90.977411
L152.928019 91.072650
" />
<path d="M152.928019 91.072650
L153.118495 91.167888
" />
<path d="M153.118495 91.167888
L153.499448 91.167888
" />
<path d="M153.499448 91.167888
L153.689924 91.072650
" />
<path d="M153.689924 91.072650
L153.785162 90.977411
" />
<path d="M153.785162 90.977411
L153.880400 90.786935
" />
<path d="M153.880400 90.786935
L153.880400 90.405983
" />
<path d="M153.880400 90.405983
L153.785162 90.215507
" />
<path d="M153.785162 90.215507
L153.689924 90.120269
" />
<path d="M153.689924 90.120269
L153.499448 90.025030
" />
</g><text x="108.254800" y="90.652600"
textLength="15.766667" font-size="2.666666" lengthAdjust="spacingAndGlyphs"
text-anchor="start" opacity="0">G-NiceRF</text>
<g class="stroked-text"><desc>G-NiceRF</desc>
<path d="M110.107556 88.477076
L109.917080 88.381838
" />
<path d="M109.917080 88.381838
L109.631366 88.381838
" />
<path d="M109.631366 88.381838
L109.345651 88.477076
" />
<path d="M109.345651 88.477076
L109.155175 88.667552
" />
<path d="M109.155175 88.667552
L109.059937 88.858028
" />
<path d="M109.059937 88.858028
L108.964699 89.238980
" />
<path d="M108.964699 89.238980
L108.964699 89.524695
" />
<path d="M108.964699 89.524695
L109.059937 89.905647
" />
<path d="M109.059937 89.905647
L109.155175 90.096123
" />
<path d="M109.155175 90.096123
L109.345651 90.286600
" />
<path d="M109.345651 90.286600
L109.631366 90.381838
" />
<path d="M109.631366 90.381838
L109.821842 90.381838
" />
<path d="M109.821842 90.381838
L110.107556 90.286600
" />
<path d="M110.107556 90.286600
L110.202794 90.191361
" />
<path d="M110.202794 90.191361
L110.202794 89.524695
" />
<path d="M110.202794 89.524695
L109.821842 89.524695
" />
<path d="M111.059937 89.619933
L112.583747 89.619933
" />
<path d="M113.536127 90.381838
L113.536127 88.381838
" />
<path d="M113.536127 88.381838
L114.678984 90.381838
" />
<path d="M114.678984 90.381838
L114.678984 88.381838
" />
<path d="M115.631365 90.381838
L115.631365 89.048504
" />
<path d="M115.631365 88.381838
L115.536127 88.477076
" />
<path d="M115.536127 88.477076
L115.631365 88.572314
" />
<path d="M115.631365 88.572314
L115.726603 88.477076
" />
<path d="M115.726603 88.477076
L115.631365 88.381838
" />
<path d="M115.631365 88.381838
L115.631365 88.572314
" />
<path d="M117.440889 90.286600
L117.250413 90.381838
" />
<path d="M117.250413 90.381838
L116.869460 90.381838
" />
<path d="M116.869460 90.381838
L116.678984 90.286600
" />
<path d="M116.678984 90.286600
L116.583746 90.191361
" />
<path d="M116.583746 90.191361
L116.488508 90.000885
" />
<path d="M116.488508 90.000885
L116.488508 89.429457
" />
<path d="M116.488508 89.429457
L116.583746 89.238980
" />
<path d="M116.583746 89.238980
L116.678984 89.143742
" />
<path d="M116.678984 89.143742
L116.869460 89.048504
" />
<path d="M116.869460 89.048504
L117.250413 89.048504
" />
<path d="M117.250413 89.048504
L117.440889 89.143742
" />
<path d="M119.059937 90.286600
L118.869461 90.381838
" />
<path d="M118.869461 90.381838
L118.488508 90.381838
" />
<path d="M118.488508 90.381838
L118.298032 90.286600
" />
<path d="M118.298032 90.286600
L118.202794 90.096123
" />
<path d="M118.202794 90.096123
L118.202794 89.334219
" />
<path d="M118.202794 89.334219
L118.298032 89.143742
" />
<path d="M118.298032 89.143742
L118.488508 89.048504
" />
<path d="M118.488508 89.048504
L118.869461 89.048504
" />
<path d="M118.869461 89.048504
L119.059937 89.143742
" />
<path d="M119.059937 89.143742
L119.155175 89.334219
" />
<path d="M119.155175 89.334219
L119.155175 89.524695
" />
<path d="M119.155175 89.524695
L118.202794 89.715171
" />
<path d="M121.155175 90.381838
L120.488508 89.429457
" />
<path d="M120.012318 90.381838
L120.012318 88.381838
" />
<path d="M120.012318 88.381838
L120.774223 88.381838
" />
<path d="M120.774223 88.381838
L120.964699 88.477076
" />
<path d="M120.964699 88.477076
L121.059937 88.572314
" />
<path d="M121.059937 88.572314
L121.155175 88.762790
" />
<path d="M121.155175 88.762790
L121.155175 89.048504
" />
<path d="M121.155175 89.048504
L121.059937 89.238980
" />
<path d="M121.059937 89.238980
L120.964699 89.334219
" />
<path d="M120.964699 89.334219
L120.774223 89.429457
" />
<path d="M120.774223 89.429457
L120.012318 89.429457
" />
<path d="M122.678985 89.334219
L122.012318 89.334219
" />
<path d="M122.012318 90.381838
L122.012318 88.381838
" />
<path d="M122.012318 88.381838
L122.964699 88.381838
" />
</g><text x="78.841600" y="52.501800"
textLength="11.757143" font-size="4.000000" lengthAdjust="spacingAndGlyphs"
text-anchor="start" opacity="0">LoRa</text>
<g class="stroked-text"><desc>LoRa</desc>
<path d="M81.313404 52.108657
L79.884832 52.108657
" />
<path d="M79.884832 52.108657
L79.884832 49.108657
" />
<path d="M82.741975 52.108657
L82.456260 51.965800
" />
<path d="M82.456260 51.965800
L82.313403 51.822942
" />
<path d="M82.313403 51.822942
L82.170546 51.537228
" />
<path d="M82.170546 51.537228
L82.170546 50.680085
" />
<path d="M82.170546 50.680085
L82.313403 50.394371
" />
<path d="M82.313403 50.394371
L82.456260 50.251514
" />
<path d="M82.456260 50.251514
L82.741975 50.108657
" />
<path d="M82.741975 50.108657
L83.170546 50.108657
" />
<path d="M83.170546 50.108657
L83.456260 50.251514
" />
<path d="M83.456260 50.251514
L83.599118 50.394371
" />
<path d="M83.599118 50.394371
L83.741975 50.680085
" />
<path d="M83.741975 50.680085
L83.741975 51.537228
" />
<path d="M83.741975 51.537228
L83.599118 51.822942
" />
<path d="M83.599118 51.822942
L83.456260 51.965800
" />
<path d="M83.456260 51.965800
L83.170546 52.108657
" />
<path d="M83.170546 52.108657
L82.741975 52.108657
" />
<path d="M86.741975 52.108657
L85.741975 50.680085
" />
<path d="M85.027689 52.108657
L85.027689 49.108657
" />
<path d="M85.027689 49.108657
L86.170546 49.108657
" />
<path d="M86.170546 49.108657
L86.456261 49.251514
" />
<path d="M86.456261 49.251514
L86.599118 49.394371
" />
<path d="M86.599118 49.394371
L86.741975 49.680085
" />
<path d="M86.741975 49.680085
L86.741975 50.108657
" />
<path d="M86.741975 50.108657
L86.599118 50.394371
" />
<path d="M86.599118 50.394371
L86.456261 50.537228
" />
<path d="M86.456261 50.537228
L86.170546 50.680085
" />
<path d="M86.170546 50.680085
L85.027689 50.680085
" />
<path d="M89.313404 52.108657
L89.313404 50.537228
" />
<path d="M89.313404 50.537228
L89.170546 50.251514
" />
<path d="M89.170546 50.251514
L88.884832 50.108657
" />
<path d="M88.884832 50.108657
L88.313404 50.108657
" />
<path d="M88.313404 50.108657
L88.027689 50.251514
" />
<path d="M89.313404 51.965800
L89.027689 52.108657
" />
<path d="M89.027689 52.108657
L88.313404 52.108657
" />
<path d="M88.313404 52.108657
L88.027689 51.965800
" />
<path d="M88.027689 51.965800
L87.884832 51.680085
" />
<path d="M87.884832 51.680085
L87.884832 51.394371
" />
<path d="M87.884832 51.394371
L88.027689 51.108657
" />
<path d="M88.027689 51.108657
L88.313404 50.965800
" />
<path d="M88.313404 50.965800
L89.027689 50.965800
" />
<path d="M89.027689 50.965800
L89.313404 50.822942
" />
</g><text x="107.654800" y="60.880000"
textLength="14.909524" font-size="2.666666" lengthAdjust="spacingAndGlyphs"
text-anchor="start" opacity="0">RV-3032</text>
<g class="stroked-text"><desc>RV-3032</desc>
<path d="M109.602794 60.609238
L108.936127 59.656857
" />
<path d="M108.459937 60.609238
L108.459937 58.609238
" />
<path d="M108.459937 58.609238
L109.221842 58.609238
" />
<path d="M109.221842 58.609238
L109.412318 58.704476
" />
<path d="M109.412318 58.704476
L109.507556 58.799714
" />
<path d="M109.507556 58.799714
L109.602794 58.990190
" />
<path d="M109.602794 58.990190
L109.602794 59.275904
" />
<path d="M109.602794 59.275904
L109.507556 59.466380
" />
<path d="M109.507556 59.466380
L109.412318 59.561619
" />
<path d="M109.412318 59.561619
L109.221842 59.656857
" />
<path d="M109.221842 59.656857
L108.459937 59.656857
" />
<path d="M110.174223 58.609238
L110.840889 60.609238
" />
<path d="M110.840889 60.609238
L111.507556 58.609238
" />
<path d="M112.174223 59.847333
L113.698033 59.847333
" />
<path d="M114.459937 58.609238
L115.698032 58.609238
" />
<path d="M115.698032 58.609238
L115.031365 59.371142
" />
<path d="M115.031365 59.371142
L115.317080 59.371142
" />
<path d="M115.317080 59.371142
L115.507556 59.466380
" />
<path d="M115.507556 59.466380
L115.602794 59.561619
" />
<path d="M115.602794 59.561619
L115.698032 59.752095
" />
<path d="M115.698032 59.752095
L115.698032 60.228285
" />
<path d="M115.698032 60.228285
L115.602794 60.418761
" />
<path d="M115.602794 60.418761
L115.507556 60.514000
" />
<path d="M115.507556 60.514000
L115.317080 60.609238
" />
<path d="M115.317080 60.609238
L114.745651 60.609238
" />
<path d="M114.745651 60.609238
L114.555175 60.514000
" />
<path d="M114.555175 60.514000
L114.459937 60.418761
" />
<path d="M116.936127 58.609238
L117.126604 58.609238
" />
<path d="M117.126604 58.609238
L117.317080 58.704476
" />
<path d="M117.317080 58.704476
L117.412318 58.799714
" />
<path d="M117.412318 58.799714
L117.507556 58.990190
" />
<path d="M117.507556 58.990190
L117.602794 59.371142
" />
<path d="M117.602794 59.371142
L117.602794 59.847333
" />
<path d="M117.602794 59.847333
L117.507556 60.228285
" />
<path d="M117.507556 60.228285
L117.412318 60.418761
" />
<path d="M117.412318 60.418761
L117.317080 60.514000
" />
<path d="M117.317080 60.514000
L117.126604 60.609238
" />
<path d="M117.126604 60.609238
L116.936127 60.609238
" />
<path d="M116.936127 60.609238
L116.745651 60.514000
" />
<path d="M116.745651 60.514000
L116.650413 60.418761
" />
<path d="M116.650413 60.418761
L116.555175 60.228285
" />
<path d="M116.555175 60.228285
L116.459937 59.847333
" />
<path d="M116.459937 59.847333
L116.459937 59.371142
" />
<path d="M116.459937 59.371142
L116.555175 58.990190
" />
<path d="M116.555175 58.990190
L116.650413 58.799714
" />
<path d="M116.650413 58.799714
L116.745651 58.704476
" />
<path d="M116.745651 58.704476
L116.936127 58.609238
" />
<path d="M118.269461 58.609238
L119.507556 58.609238
" />
<path d="M119.507556 58.609238
L118.840889 59.371142
" />
<path d="M118.840889 59.371142
L119.126604 59.371142
" />
<path d="M119.126604 59.371142
L119.317080 59.466380
" />
<path d="M119.317080 59.466380
L119.412318 59.561619
" />
<path d="M119.412318 59.561619
L119.507556 59.752095
" />
<path d="M119.507556 59.752095
L119.507556 60.228285
" />
<path d="M119.507556 60.228285
L119.412318 60.418761
" />
<path d="M119.412318 60.418761
L119.317080 60.514000
" />
<path d="M119.317080 60.514000
L119.126604 60.609238
" />
<path d="M119.126604 60.609238
L118.555175 60.609238
" />
<path d="M118.555175 60.609238
L118.364699 60.514000
" />
<path d="M118.364699 60.514000
L118.269461 60.418761
" />
<path d="M120.269461 58.799714
L120.364699 58.704476
" />
<path d="M120.364699 58.704476
L120.555175 58.609238
" />
<path d="M120.555175 58.609238
L121.031366 58.609238
" />
<path d="M121.031366 58.609238
L121.221842 58.704476
" />
<path d="M121.221842 58.704476
L121.317080 58.799714
" />
<path d="M121.317080 58.799714
L121.412318 58.990190
" />
<path d="M121.412318 58.990190
L121.412318 59.180666
" />
<path d="M121.412318 59.180666
L121.317080 59.466380
" />
<path d="M121.317080 59.466380
L120.174223 60.609238
" />
<path d="M120.174223 60.609238
L121.412318 60.609238
" />
</g><path style="fill:#000000; fill-opacity:1.000000; stroke:none;fill-rule:evenodd;"
d="M 151.466881,110.884700
151.473732,110.850258
151.493241,110.821060
151.522439,110.801551
151.556881,110.794700
153.076881,110.794700
153.111323,110.801551
153.140521,110.821060
153.160030,110.850258
153.166881,110.884700
153.166881,111.604700
153.160030,111.639142
153.140521,111.668340
153.111323,111.687849
153.076881,111.694700
151.556881,111.694700
151.522439,111.687849
151.493241,111.668340
151.473732,111.639142
151.466881,111.604700
Z" /> 
<path style="fill:#000000; fill-opacity:1.000000; stroke:none;fill-rule:evenodd;"
d="M 151.466881,109.884700
151.473732,109.850258
151.493241,109.821060
151.522439,109.801551
151.556881,109.794700
153.076881,109.794700
153.111323,109.801551
153.140521,109.821060
153.160030,109.850258
153.166881,109.884700
153.166881,110.604700
153.160030,110.639142
153.140521,110.668340
153.111323,110.687849
153.076881,110.694700
151.556881,110.694700
151.522439,110.687849
151.493241,110.668340
151.473732,110.639142
151.466881,110.604700
Z" /> 
<path style="fill:#000000; fill-opacity:1.000000; stroke:none;fill-rule:evenodd;"
d="M 151.466881,108.884700
151.473732,108.850258
151.493241,108.821060
151.522439,108.801551
151.556881,108.794700
153.076881,108.794700
153.111323,108.801551
153.140521,108.821060
153.160030,108.850258
153.166881,108.884700
153.166881,109.604700
153.160030,109.639142
153.140521,109.668340
153.111323,109.687849
153.076881,109.694700
151.556881,109.694700
151.522439,109.687849
151.493241,109.668340
151.473732,109.639142
151.466881,109.604700
Z" /> 
<path style="fill:#000000; fill-opacity:1.000000; stroke:none;fill-rule:evenodd;"
d="M 151.466881,107.884700
151.473732,107.850258
151.493241,107.821060
151.522439,107.801551
151.556881,107.794700
153.076881,107.794700
153.111323,107.801551
153.140521,107.821060
153.160030,107.850258
153.166881,107.884700
153.166881,108.604700
153.160030,108.639142
153.140521,108.668340
153.111323,108.687849
153.076881,108.694700
151.556881,108.694700
151.522439,108.687849
151.493241,108.668340
151.473732,108.639142
151.466881,108.604700
Z" /> 
<path style="fill:#000000; fill-opacity:1.000000; stroke:none;fill-rule:evenodd;"
d="M 151.466881,106.884700
151.473732,106.850258
151.493241,106.821060
151.522439,106.801551
151.556881,106.794700
153.076881,106.794700
153.111323,106.801551
153.140521,106.821060
153.160030,106.850258
153.166881,106.884700
153.166881,107.604700
153.160030,107.639142
153.140521,107.668340
153.111323,107.687849
153.076881,107.694700
151.556881,107.694700
151.522439,107.687849
151.493241,107.668340
151.473732,107.639142
151.466881,107.604700
Z" /> 
<path style="fill:#000000; fill-opacity:1.000000; stroke:none;fill-rule:evenodd;"
d="M 151.466881,105.884700
151.473732,105.850258
151.493241,105.821060
151.522439,105.801551
151.556881,105.794700
153.076881,105.794700
153.111323,105.801551
153.140521,105.821060
153.160030,105.850258
153.166881,105.884700
153.166881,106.604700
153.160030,106.639142
153.140521,106.668340
153.111323,106.687849
153.076881,106.694700
151.556881,106.694700
151.522439,106.687849
151.493241,106.668340
151.473732,106.639142
151.466881,106.604700
Z" /> 
<path style="fill:#000000; fill-opacity:1.000000; stroke:none;fill-rule:evenodd;"
d="M 151.466881,104.884700
151.473732,104.850258
151.493241,104.821060
151.522439,104.801551
151.556881,104.794700
153.076881,104.794700
153.111323,104.801551
153.140521,104.821060
153.160030,104.850258
153.166881,104.884700
153.166881,105.604700
153.160030,105.639142
153.140521,105.668340
153.111323,105.687849
153.076881,105.694700
151.556881,105.694700
151.522439,105.687849
151.493241,105.668340
151.473732,105.639142
151.466881,105.604700
Z" /> 
<path style="fill:#000000; fill-opacity:1.000000; stroke:none;fill-rule:evenodd;"
d="M 151.466881,103.884700
151.473732,103.850258
151.493241,103.821060
151.522439,103.801551
151.556881,103.794700
153.076881,103.794700
153.111323,103.801551
153.140521,103.821060
153.160030,103.850258
153.166881,103.884700
153.166881,104.604700
153.160030,104.639142
153.140521,104.668340
153.111323,104.687849
153.076881,104.694700
151.556881,104.694700
151.522439,104.687849
151.493241,104.668340
151.473732,104.639142
151.466881,104.604700
Z" /> 
<path style="fill:#000000; fill-opacity:1.000000; stroke:none;fill-rule:evenodd;"
d="M 151.466881,102.884700
151.473732,102.850258
151.493241,102.821060
151.522439,102.801551
151.556881,102.794700
153.076881,102.794700
153.111323,102.801551
153.140521,102.821060
153.160030,102.850258
153.166881,102.884700
153.166881,103.604700
153.160030,103.639142
153.140521,103.668340
153.111323,103.687849
153.076881,103.694700
151.556881,103.694700
151.522439,103.687849
151.493241,103.668340
151.473732,103.639142
151.466881,103.604700
Z" /> 
<path style="fill:#000000; fill-opacity:1.000000; stroke:none;fill-rule:evenodd;"
d="M 151.466881,101.884700
151.473732,101.850258
151.493241,101.821060
151.522439,101.801551
151.556881,101.794700
153.076881,101.794700
153.111323,101.801551
153.140521,101.821060
153.160030,101.850258
153.166881,101.884700
153.166881,102.604700
153.160030,102.639142
153.140521,102.668340
153.111323,102.687849
153.076881,102.694700
151.556881,102.694700
151.522439,102.687849
151.493241,102.668340
151.473732,102.639142
151.466881,102.604700
Z" /> 
<path style="fill:#000000; fill-opacity:1.000000; stroke:none;fill-rule:evenodd;"
d="M 151.466881,100.884700
151.473732,100.850258
151.493241,100.821060
151.522439,100.801551
151.556881,100.794700
153.076881,100.794700
153.111323,100.801551
153.140521,100.821060
153.160030,100.850258
153.166881,100.884700
153.166881,101.604700
153.160030,101.639142
153.140521,101.668340
153.111323,101.687849
153.076881,101.694700
151.556881,101.694700
151.522439,101.687849
151.493241,101.668340
151.473732,101.639142
151.466881,101.604700
Z" /> 
<path style="fill:#000000; fill-opacity:1.000000; stroke:none;fill-rule:evenodd;"
d="M 151.466881,99.884700
151.473732,99.850258
151.493241,99.821060
151.522439,99.801551
151.556881,99.794700
153.076881,99.794700
153.111323,99.801551
153.140521,99.821060
153.160030,99.850258
153.166881,99.884700
153.166881,100.604700
153.160030,100.639142
153.140521,100.668340
153.111323,100.687849
153.076881,100.694700
151.556881,100.694700
151.522439,100.687849
151.493241,100.668340
151.473732,100.639142
151.466881,100.604700
Z" /> 
<path style="fill:#000000; fill-opacity:1.000000; stroke:none;fill-rule:evenodd;"
d="M 151.466881,98.564700
151.476015,98.518778
151.502028,98.479847
151.540959,98.453834
151.586881,98.444700
153.046881,98.444700
153.092803,98.453834
153.131734,98.479847
153.157747,98.518778
153.166881,98.564700
153.166881,99.524700
153.157747,99.570622
153.131734,99.609553
153.092803,99.635566
153.046881,99.644700
151.586881,99.644700
151.540959,99.635566
151.502028,99.609553
151.476015,99.570622
151.466881,99.524700
Z" /> 
<path style="fill:#000000; fill-opacity:1.000000; stroke:none;fill-rule:evenodd;"
d="M 144.366881,99.524700
144.357747,99.570622
144.331734,99.609553
144.292803,99.635566
144.246881,99.644700
142.786881,99.644700
142.740959,99.635566
142.702028,99.609553
142.676015,99.570622
142.666881,99.524700
142.666881,98.564700
142.676015,98.518778
142.702028,98.479847
142.740959,98.453834
142.786881,98.444700
144.246881,98.444700
144.292803,98.453834
144.331734,98.479847
144.357747,98.518778
144.366881,98.564700
Z" /> 
<path style="fill:#000000; fill-opacity:1.000000; stroke:none;fill-rule:evenodd;"
d="M 144.366881,100.604700
144.360030,100.639142
144.340521,100.668340
144.311323,100.687849
144.276881,100.694700
142.756881,100.694700
142.722439,100.687849
142.693241,100.668340
142.673732,100.639142
142.666881,100.604700
142.666881,99.884700
142.673732,99.850258
142.693241,99.821060
142.722439,99.801551
142.756881,99.794700
144.276881,99.794700
144.311323,99.801551
144.340521,99.821060
144.360030,99.850258
144.366881,99.884700
Z" /> 
<path style="fill:#000000; fill-opacity:1.000000; stroke:none;fill-rule:evenodd;"
d="M 144.366881,101.604700
144.360030,101.639142
144.340521,101.668340
144.311323,101.687849
144.276881,101.694700
142.756881,101.694700
142.722439,101.687849
142.693241,101.668340
142.673732,101.639142
142.666881,101.604700
142.666881,100.884700
142.673732,100.850258
142.693241,100.821060
142.722439,100.801551
142.756881,100.794700
144.276881,100.794700
144.311323,100.801551
144.340521,100.821060
144.360030,100.850258
144.366881,100.884700
Z" /> 
<path style="fill:#000000; fill-opacity:1.000000; stroke:none;fill-rule:evenodd;"
d="M 144.366881,102.604700
144.360030,102.639142
144.340521,102.668340
144.311323,102.687849
144.276881,102.694700
142.756881,102.694700
142.722439,102.687849
142.693241,102.668340
142.673732,102.639142
142.666881,102.604700
142.666881,101.884700
142.673732,101.850258
142.693241,101.821060
142.722439,101.801551
142.756881,101.794700
144.276881,101.794700
144.311323,101.801551
144.340521,101.821060
144.360030,101.850258
144.366881,101.884700
Z" /> 
<path style="fill:#000000; fill-opacity:1.000000; stroke:none;fill-rule:evenodd;"
d="M 144.366881,103.604700
144.360030,103.639142
144.340521,103.668340
144.311323,103.687849
144.276881,103.694700
142.756881,103.694700
142.722439,103.687849
142.693241,103.668340
142.673732,103.639142
142.666881,103.604700
142.666881,102.884700
142.673732,102.850258
142.693241,102.821060
142.722439,102.801551
142.756881,102.794700
144.276881,102.794700
144.311323,102.801551
144.340521,102.821060
144.360030,102.850258
144.366881,102.884700
Z" /> 
<path style="fill:#000000; fill-opacity:1.000000; stroke:none;fill-rule:evenodd;"
d="M 144.366881,104.604700
144.360030,104.639142
144.340521,104.668340
144.311323,104.687849
144.276881,104.694700
142.756881,104.694700
142.722439,104.687849
142.693241,104.668340
142.673732,104.639142
142.666881,104.604700
142.666881,103.884700
142.673732,103.850258
142.693241,103.821060
142.722439,103.801551
142.756881,103.794700
144.276881,103.794700
144.311323,103.801551
144.340521,103.821060
144.360030,103.850258
144.366881,103.884700
Z" /> 
<path style="fill:#000000; fill-opacity:1.000000; stroke:none;fill-rule:evenodd;"
d="M 144.366881,105.604700
144.360030,105.639142
144.340521,105.668340
144.311323,105.687849
144.276881,105.694700
142.756881,105.694700
142.722439,105.687849
142.693241,105.668340
142.673732,105.639142
142.666881,105.604700
142.666881,104.884700
142.673732,104.850258
142.693241,104.821060
142.722439,104.801551
142.756881,104.794700
144.276881,104.794700
144.311323,104.801551
144.340521,104.821060
144.360030,104.850258
144.366881,104.884700
Z" /> 
<path style="fill:#000000; fill-opacity:1.000000; stroke:none;fill-rule:evenodd;"
d="M 144.366881,106.604700
144.360030,106.639142
144.340521,106.668340
144.311323,106.687849
144.276881,106.694700
142.756881,106.694700
142.722439,106.687849
142.693241,106.668340
142.673732,106.639142
142.666881,106.604700
142.666881,105.884700
142.673732,105.850258
142.693241,105.821060
142.722439,105.801551
142.756881,105.794700
144.276881,105.794700
144.311323,105.801551
144.340521,105.821060
144.360030,105.850258
144.366881,105.884700
Z" /> 
<path style="fill:#000000; fill-opacity:1.000000; stroke:none;fill-rule:evenodd;"
d="M 144.366881,107.604700
144.360030,107.639142
144.340521,107.668340
144.311323,107.687849
144.276881,107.694700
142.756881,107.694700
142.722439,107.687849
142.693241,107.668340
142.673732,107.639142
142.666881,107.604700
142.666881,106.884700
142.673732,106.850258
142.693241,106.821060
142.722439,106.801551
142.756881,106.794700
144.276881,106.794700
144.311323,106.801551
144.340521,106.821060
144.360030,106.850258
144.366881,106.884700
Z" /> 
<path style="fill:#000000; fill-opacity:1.000000; stroke:none;fill-rule:evenodd;"
d="M 144.366881,108.604700
144.360030,108.639142
144.340521,108.668340
144.311323,108.687849
144.276881,108.694700
142.756881,108.694700
142.722439,108.687849
142.693241,108.668340
142.673732,108.639142
142.666881,108.604700
142.666881,107.884700
142.673732,107.850258
142.693241,107.821060
142.722439,107.801551
142.756881,107.794700
144.276881,107.794700
144.311323,107.801551
144.340521,107.821060
144.360030,107.850258
144.366881,107.884700
Z" /> 
<path style="fill:#000000; fill-opacity:1.000000; stroke:none;fill-rule:evenodd;"
d="M 144.366881,109.604700
144.360030,109.639142
144.340521,109.668340
144.311323,109.687849
144.276881,109.694700
142.756881,109.694700
142.722439,109.687849
142.693241,109.668340
142.673732,109.639142
142.666881,109.604700
142.666881,108.884700
142.673732,108.850258
142.693241,108.821060
142.722439,108.801551
142.756881,108.794700
144.276881,108.794700
144.311323,108.801551
144.340521,108.821060
144.360030,108.850258
144.366881,108.884700
Z" /> 
<path style="fill:#000000; fill-opacity:1.000000; stroke:none;fill-rule:evenodd;"
d="M 144.366881,110.604700
144.360030,110.639142
144.340521,110.668340
144.311323,110.687849
144.276881,110.694700
142.756881,110.694700
142.722439,110.687849
142.693241,110.668340
142.673732,110.639142
142.666881,110.604700
142.666881,109.884700
142.673732,109.850258
142.693241,109.821060
142.722439,109.801551
142.756881,109.794700
144.276881,109.794700
144.311323,109.801551
144.340521,109.821060
144.360030,109.850258
144.366881,109.884700
Z" /> 
<path style="fill:#000000; fill-opacity:1.000000; stroke:none;fill-rule:evenodd;"
d="M 144.366881,111.604700
144.360030,111.639142
144.340521,111.668340
144.311323,111.687849
144.276881,111.694700
142.756881,111.694700
142.722439,111.687849
142.693241,111.668340
142.673732,111.639142
142.666881,111.604700
142.666881,110.884700
142.673732,110.850258
142.693241,110.821060
142.722439,110.801551
142.756881,110.794700
144.276881,110.794700
144.311323,110.801551
144.340521,110.821060
144.360030,110.850258
144.366881,110.884700
Z" /> 
<path style="fill:#000000; fill-opacity:1.000000; stroke:none;fill-rule:evenodd;"
d="M 146.276881,110.794700
146.311323,110.801551
146.340521,110.821060
146.360030,110.850258
146.366881,110.884700
146.366881,112.404700
146.360030,112.439142
146.340521,112.468340
146.311323,112.487849
146.276881,112.494700
145.556881,112.494700
145.522439,112.487849
145.493241,112.468340
145.473732,112.439142
145.466881,112.404700
145.466881,110.884700
145.473732,110.850258
145.493241,110.821060
145.522439,110.801551
145.556881,110.794700
Z" /> 
<path style="fill:#000000; fill-opacity:1.000000; stroke:none;fill-rule:evenodd;"
d="M 147.276881,110.794700
147.311323,110.801551
147.340521,110.821060
147.360030,110.850258
147.366881,110.884700
147.366881,112.404700
147.360030,112.439142
147.340521,112.468340
147.311323,112.487849
147.276881,112.494700
146.556881,112.494700
146.522439,112.487849
146.493241,112.468340
146.473732,112.439142
146.466881,112.404700
146.466881,110.884700
146.473732,110.850258
146.493241,110.821060
146.522439,110.801551
146.556881,110.794700
Z" /> 
<path style="fill:#000000; fill-opacity:1.000000; stroke:none;fill-rule:evenodd;"
d="M 148.276881,110.794700
148.311323,110.801551
148.340521,110.821060
148.360030,110.850258
148.366881,110.884700
148.366881,112.404700
148.360030,112.439142
148.340521,112.468340
148.311323,112.487849
148.276881,112.494700
147.556881,112.494700
147.522439,112.487849
147.493241,112.468340
147.473732,112.439142
147.466881,112.404700
147.466881,110.884700
147.473732,110.850258
147.493241,110.821060
147.522439,110.801551
147.556881,110.794700
Z" /> 
<path style="fill:#000000; fill-opacity:1.000000; stroke:none;fill-rule:evenodd;"
d="M 149.276881,110.794700
149.311323,110.801551
149.340521,110.821060
149.360030,110.850258
149.366881,110.884700
149.366881,112.404700
149.360030,112.439142
149.340521,112.468340
149.311323,112.487849
149.276881,112.494700
148.556881,112.494700
148.522439,112.487849
148.493241,112.468340
148.473732,112.439142
148.466881,112.404700
148.466881,110.884700
148.473732,110.850258
148.493241,110.821060
148.522439,110.801551
148.556881,110.794700
Z" /> 
<path style="fill:#000000; fill-opacity:1.000000; stroke:none;fill-rule:evenodd;"
d="M 150.276881,110.794700
150.311323,110.801551
150.340521,110.821060
150.360030,110.850258
150.366881,110.884700
150.366881,112.404700
150.360030,112.439142
150.340521,112.468340
150.311323,112.487849
150.276881,112.494700
149.556881,112.494700
149.522439,112.487849
149.493241,112.468340
149.473732,112.439142
149.466881,112.404700
149.466881,110.884700
149.473732,110.850258
149.493241,110.821060
149.522439,110.801551
149.556881,110.794700
Z" /> 
<path style="fill:#000000; fill-opacity:1.000000; stroke:none;fill-rule:evenodd;"
d="M 111.730200,68.160400
111.703412,68.155072
111.680703,68.139897
111.665528,68.117188
111.660200,68.090400
111.660200,67.530400
111.665528,67.503612
111.680703,67.480903
111.703412,67.465728
111.730200,67.460400
112.590200,67.460400
112.616988,67.465728
112.639697,67.480903
112.654872,67.503612
112.660200,67.530400
112.660200,68.090400
112.654872,68.117188
112.639697,68.139897
112.616988,68.155072
112.590200,68.160400
Z" /> 
<path style="fill:#000000; fill-opacity:1.000000; stroke:none;fill-rule:evenodd;"
d="M 111.730200,69.060400
111.703412,69.055072
111.680703,69.039897
111.665528,69.017188
111.660200,68.990400
111.660200,68.430400
111.665528,68.403612
111.680703,68.380903
111.703412,68.365728
111.730200,68.360400
112.590200,68.360400
112.616988,68.365728
112.639697,68.380903
112.654872,68.403612
112.660200,68.430400
112.660200,68.990400
112.654872,69.017188
112.639697,69.039897
112.616988,69.055072
112.590200,69.060400
Z" /> 
<path style="fill:#000000; fill-opacity:1.000000; stroke:none;fill-rule:evenodd;"
d="M 111.730200,69.960400
111.703412,69.955072
111.680703,69.939897
111.665528,69.917188
111.660200,69.890400
111.660200,69.330400
111.665528,69.303612
111.680703,69.280903
111.703412,69.265728
111.730200,69.260400
112.590200,69.260400
112.616988,69.265728
112.639697,69.280903
112.654872,69.303612
112.660200,69.330400
112.660200,69.890400
112.654872,69.917188
112.639697,69.939897
112.616988,69.955072
112.590200,69.960400
Z" /> 
<path style="fill:#000000; fill-opacity:1.000000; stroke:none;fill-rule:evenodd;"
d="M 111.730200,70.860400
111.703412,70.855072
111.680703,70.839897
111.665528,70.817188
111.660200,70.790400
111.660200,70.230400
111.665528,70.203612
111.680703,70.180903
111.703412,70.165728
111.730200,70.160400
112.590200,70.160400
112.616988,70.165728
112.639697,70.180903
112.654872,70.203612
112.660200,70.230400
112.660200,70.790400
112.654872,70.817188
112.639697,70.839897
112.616988,70.855072
112.590200,70.860400
Z" /> 
<path style="fill:#000000; fill-opacity:1.000000; stroke:none;fill-rule:evenodd;"
d="M 113.790200,70.160400
113.816988,70.165728
113.839697,70.180903
113.854872,70.203612
113.860200,70.230400
113.860200,70.790400
113.854872,70.817188
113.839697,70.839897
113.816988,70.855072
113.790200,70.860400
112.930200,70.860400
112.903412,70.855072
112.880703,70.839897
112.865528,70.817188
112.860200,70.790400
112.860200,70.230400
112.865528,70.203612
112.880703,70.180903
112.903412,70.165728
112.930200,70.160400
Z" /> 
<path style="fill:#000000; fill-opacity:1.000000; stroke:none;fill-rule:evenodd;"
d="M 113.790200,69.260400
113.816988,69.265728
113.839697,69.280903
113.854872,69.303612
113.860200,69.330400
113.860200,69.890400
113.854872,69.917188
113.839697,69.939897
113.816988,69.955072
113.790200,69.960400
112.930200,69.960400
112.903412,69.955072
112.880703,69.939897
112.865528,69.917188
112.860200,69.890400
112.860200,69.330400
112.865528,69.303612
112.880703,69.280903
112.903412,69.265728
112.930200,69.260400
Z" /> 
<path style="fill:#000000; fill-opacity:1.000000; stroke:none;fill-rule:evenodd;"
d="M 113.790200,68.360400
113.816988,68.365728
113.839697,68.380903
113.854872,68.403612
113.860200,68.430400
113.860200,68.990400
113.854872,69.017188
113.839697,69.039897
113.816988,69.055072
113.790200,69.060400
112.930200,69.060400
112.903412,69.055072
112.880703,69.039897
112.865528,69.017188
112.860200,68.990400
112.860200,68.430400
112.865528,68.403612
112.880703,68.380903
112.903412,68.365728
112.930200,68.360400
Z" /> 
<path style="fill:#000000; fill-opacity:1.000000; stroke:none;fill-rule:evenodd;"
d="M 113.790200,67.460400
113.816988,67.465728
113.839697,67.480903
113.854872,67.503612
113.860200,67.530400
113.860200,68.090400
113.854872,68.117188
113.839697,68.139897
113.816988,68.155072
113.790200,68.160400
112.930200,68.160400
112.903412,68.155072
112.880703,68.139897
112.865528,68.117188
112.860200,68.090400
112.860200,67.530400
112.865528,67.503612
112.880703,67.480903
112.903412,67.465728
112.930200,67.460400
Z" /> 
<path style="fill:#000000; fill-opacity:1.000000; stroke:none;fill-rule:evenodd;"
d="M 106.539000,97.786200
106.546612,97.747932
106.568289,97.715489
106.600732,97.693812
106.639000,97.686200
109.239000,97.686200
109.277268,97.693812
109.309711,97.715489
109.331388,97.747932
109.339000,97.786200
109.339000,98.786200
109.331388,98.824468
109.309711,98.856911
109.277268,98.878588
109.239000,98.886200
106.639000,98.886200
106.600732,98.878588
106.568289,98.856911
106.546612,98.824468
106.539000,98.786200
Z" /> 
<path style="fill:#000000; fill-opacity:1.000000; stroke:none;fill-rule:evenodd;"
d="M 123.839000,109.586200
123.831388,109.624468
123.809711,109.656911
123.777268,109.678588
123.739000,109.686200
121.139000,109.686200
121.100732,109.678588
121.068289,109.656911
121.046612,109.624468
121.039000,109.586200
121.039000,108.586200
121.046612,108.547932
121.068289,108.515489
121.100732,108.493812
121.139000,108.486200
123.739000,108.486200
123.777268,108.493812
123.809711,108.515489
123.831388,108.547932
123.839000,108.586200
Z" /> 
<path style="fill:#000000; fill-opacity:1.000000; stroke:none;fill-rule:evenodd;"
d="M 123.839000,113.186200
123.831388,113.224468
123.809711,113.256911
123.777268,113.278588
123.739000,113.286200
121.139000,113.286200
121.100732,113.278588
121.068289,113.256911
121.046612,113.224468
121.039000,113.186200
121.039000,112.186200
121.046612,112.147932
121.068289,112.115489
121.100732,112.093812
121.139000,112.086200
123.739000,112.086200
123.777268,112.093812
123.809711,112.115489
123.831388,112.147932
123.839000,112.186200
Z" /> 
<path style="fill:#000000; fill-opacity:1.000000; stroke:none;fill-rule:evenodd;"
d="M 106.539000,99.586200
106.546612,99.547932
106.568289,99.515489
106.600732,99.493812
106.639000,99.486200
109.239000,99.486200
109.277268,99.493812
109.309711,99.515489
109.331388,99.547932
109.339000,99.586200
109.339000,100.586200
109.331388,100.624468
109.309711,100.656911
109.277268,100.678588
109.239000,100.686200
106.639000,100.686200
106.600732,100.678588
106.568289,100.656911
106.546612,100.624468
106.539000,100.586200
Z" /> 
<path style="fill:#000000; fill-opacity:1.000000; stroke:none;fill-rule:evenodd;"
d="M 106.539000,101.386200
106.546612,101.347932
106.568289,101.315489
106.600732,101.293812
106.639000,101.286200
109.239000,101.286200
109.277268,101.293812
109.309711,101.315489
109.331388,101.347932
109.339000,101.386200
109.339000,102.386200
109.331388,102.424468
109.309711,102.456911
109.277268,102.478588
109.239000,102.486200
106.639000,102.486200
106.600732,102.478588
106.568289,102.456911
106.546612,102.424468
106.539000,102.386200
Z" /> 
<path style="fill:#000000; fill-opacity:1.000000; stroke:none;fill-rule:evenodd;"
d="M 106.539000,103.186200
106.546612,103.147932
106.568289,103.115489
106.600732,103.093812
106.639000,103.086200
109.239000,103.086200
109.277268,103.093812
109.309711,103.115489
109.331388,103.147932
109.339000,103.186200
109.339000,104.186200
109.331388,104.224468
109.309711,104.256911
109.277268,104.278588
109.239000,104.286200
106.639000,104.286200
106.600732,104.278588
106.568289,104.256911
106.546612,104.224468
106.539000,104.186200
Z" /> 
<path style="fill:#000000; fill-opacity:1.000000; stroke:none;fill-rule:evenodd;"
d="M 106.539000,104.986200
106.546612,104.947932
106.568289,104.915489
106.600732,104.893812
106.639000,104.886200
109.239000,104.886200
109.277268,104.893812
109.309711,104.915489
109.331388,104.947932
109.339000,104.986200
109.339000,105.986200
109.331388,106.024468
109.309711,106.056911
109.277268,106.078588
109.239000,106.086200
106.639000,106.086200
106.600732,106.078588
106.568289,106.056911
106.546612,106.024468
106.539000,105.986200
Z" /> 
<path style="fill:#000000; fill-opacity:1.000000; stroke:none;fill-rule:evenodd;"
d="M 106.539000,106.786200
106.546612,106.747932
106.568289,106.715489
106.600732,106.693812
106.639000,106.686200
109.239000,106.686200
109.277268,106.693812
109.309711,106.715489
109.331388,106.747932
109.339000,106.786200
109.339000,107.786200
109.331388,107.824468
109.309711,107.856911
109.277268,107.878588
109.239000,107.886200
106.639000,107.886200
106.600732,107.878588
106.568289,107.856911
106.546612,107.824468
106.539000,107.786200
Z" /> 
<path style="fill:#000000; fill-opacity:1.000000; stroke:none;fill-rule:evenodd;"
d="M 106.539000,108.586200
106.546612,108.547932
106.568289,108.515489
106.600732,108.493812
106.639000,108.486200
109.239000,108.486200
109.277268,108.493812
109.309711,108.515489
109.331388,108.547932
109.339000,108.586200
109.339000,109.586200
109.331388,109.624468
109.309711,109.656911
109.277268,109.678588
109.239000,109.686200
106.639000,109.686200
106.600732,109.678588
106.568289,109.656911
106.546612,109.624468
106.539000,109.586200
Z" /> 
<path style="fill:#000000; fill-opacity:1.000000; stroke:none;fill-rule:evenodd;"
d="M 106.539000,110.386200
106.546612,110.347932
106.568289,110.315489
106.600732,110.293812
106.639000,110.286200
109.239000,110.286200
109.277268,110.293812
109.309711,110.315489
109.331388,110.347932
109.339000,110.386200
109.339000,111.386200
109.331388,111.424468
109.309711,111.456911
109.277268,111.478588
109.239000,111.486200
106.639000,111.486200
106.600732,111.478588
106.568289,111.456911
106.546612,111.424468
106.539000,111.386200
Z" /> 
<path style="fill:#000000; fill-opacity:1.000000; stroke:none;fill-rule:evenodd;"
d="M 106.539000,112.186200
106.546612,112.147932
106.568289,112.115489
106.600732,112.093812
106.639000,112.086200
109.239000,112.086200
109.277268,112.093812
109.309711,112.115489
109.331388,112.147932
109.339000,112.186200
109.339000,113.186200
109.331388,113.224468
109.309711,113.256911
109.277268,113.278588
109.239000,113.286200
106.639000,113.286200
106.600732,113.278588
106.568289,113.256911
106.546612,113.224468
106.539000,113.186200
Z" /> 
<path style="fill:#000000; fill-opacity:1.000000; stroke:none;fill-rule:evenodd;"
d="M 123.839000,111.386200
123.831388,111.424468
123.809711,111.456911
123.777268,111.478588
123.739000,111.486200
121.139000,111.486200
121.100732,111.478588
121.068289,111.456911
121.046612,111.424468
121.039000,111.386200
121.039000,110.386200
121.046612,110.347932
121.068289,110.315489
121.100732,110.293812
121.139000,110.286200
123.739000,110.286200
123.777268,110.293812
123.809711,110.315489
123.831388,110.347932
123.839000,110.386200
Z" /> 
<path style="fill:#000000; fill-opacity:1.000000; stroke:none;fill-rule:evenodd;"
d="M 123.839000,107.786200
123.831388,107.824468
123.809711,107.856911
123.777268,107.878588
123.739000,107.886200
121.139000,107.886200
121.100732,107.878588
121.068289,107.856911
121.046612,107.824468
121.039000,107.786200
121.039000,106.786200
121.046612,106.747932
121.068289,106.715489
121.100732,106.693812
121.139000,106.686200
123.739000,106.686200
123.777268,106.693812
123.809711,106.715489
123.831388,106.747932
123.839000,106.786200
Z" /> 
<path style="fill:#000000; fill-opacity:1.000000; stroke:none;fill-rule:evenodd;"
d="M 123.839000,105.986200
123.831388,106.024468
123.809711,106.056911
123.777268,106.078588
123.739000,106.086200
121.139000,106.086200
121.100732,106.078588
121.068289,106.056911
121.046612,106.024468
121.039000,105.986200
121.039000,104.986200
121.046612,104.947932
121.068289,104.915489
121.100732,104.893812
121.139000,104.886200
123.739000,104.886200
123.777268,104.893812
123.809711,104.915489
123.831388,104.947932
123.839000,104.986200
Z" /> 
<path style="fill:#000000; fill-opacity:1.000000; stroke:none;fill-rule:evenodd;"
d="M 123.839000,104.186200
123.831388,104.224468
123.809711,104.256911
123.777268,104.278588
123.739000,104.286200
121.139000,104.286200
121.100732,104.278588
121.068289,104.256911
121.046612,104.224468
121.039000,104.186200
121.039000,103.186200
121.046612,103.147932
121.068289,103.115489
121.100732,103.093812
121.139000,103.086200
123.739000,103.086200
123.777268,103.093812
123.809711,103.115489
123.831388,103.147932
123.839000,103.186200
Z" /> 
<path style="fill:#000000; fill-opacity:1.000000; stroke:none;fill-rule:evenodd;"
d="M 123.839000,102.386200
123.831388,102.424468
123.809711,102.456911
123.777268,102.478588
123.739000,102.486200
121.139000,102.486200
121.100732,102.478588
121.068289,102.456911
121.046612,102.424468
121.039000,102.386200
121.039000,101.386200
121.046612,101.347932
121.068289,101.315489
121.100732,101.293812
121.139000,101.286200
123.739000,101.286200
123.777268,101.293812
123.809711,101.315489
123.831388,101.347932
123.839000,101.386200
Z" /> 
<path style="fill:#000000; fill-opacity:1.000000; stroke:none;fill-rule:evenodd;"
d="M 123.839000,100.586200
123.831388,100.624468
123.809711,100.656911
123.777268,100.678588
123.739000,100.686200
121.139000,100.686200
121.100732,100.678588
121.068289,100.656911
121.046612,100.624468
121.039000,100.586200
121.039000,99.586200
121.046612,99.547932
121.068289,99.515489
121.100732,99.493812
121.139000,99.486200
123.739000,99.486200
123.777268,99.493812
123.809711,99.515489
123.831388,99.547932
123.839000,99.586200
Z" /> 
<path style="fill:#000000; fill-opacity:1.000000; stroke:none;fill-rule:evenodd;"
d="M 123.839000,98.786200
123.831388,98.824468
123.809711,98.856911
123.777268,98.878588
123.739000,98.886200
121.139000,98.886200
121.100732,98.878588
121.068289,98.856911
121.046612,98.824468
121.039000,98.786200
121.039000,97.786200
121.046612,97.747932
121.068289,97.715489
121.100732,97.693812
121.139000,97.686200
123.739000,97.686200
123.777268,97.693812
123.809711,97.715489
123.831388,97.747932
123.839000,97.786200
Z" /> 
<path style="fill:#000000; fill-opacity:1.000000; stroke:none;fill-rule:evenodd;"
d="M 90.302541,112.337050
90.283511,112.432721
90.229318,112.513827
90.148212,112.568020
90.052541,112.587050
88.552541,112.587050
88.456870,112.568020
88.375764,112.513827
88.321571,112.432721
88.302541,112.337050
88.302541,111.837050
88.321571,111.741379
88.375764,111.660273
88.456870,111.606080
88.552541,111.587050
90.052541,111.587050
90.148212,111.606080
90.229318,111.660273
90.283511,111.741379
90.302541,111.837050
Z" /> 
<path style="fill:#000000; fill-opacity:1.000000; stroke:none;fill-rule:evenodd;"
d="M 90.302541,111.237050
90.283511,111.332721
90.229318,111.413827
90.148212,111.468020
90.052541,111.487050
88.552541,111.487050
88.456870,111.468020
88.375764,111.413827
88.321571,111.332721
88.302541,111.237050
88.302541,110.737050
88.321571,110.641379
88.375764,110.560273
88.456870,110.506080
88.552541,110.487050
90.052541,110.487050
90.148212,110.506080
90.229318,110.560273
90.283511,110.641379
90.302541,110.737050
Z" /> 
<path style="fill:#000000; fill-opacity:1.000000; stroke:none;fill-rule:evenodd;"
d="M 90.302541,110.137050
90.283511,110.232721
90.229318,110.313827
90.148212,110.368020
90.052541,110.387050
88.552541,110.387050
88.456870,110.368020
88.375764,110.313827
88.321571,110.232721
88.302541,110.137050
88.302541,109.637050
88.321571,109.541379
88.375764,109.460273
88.456870,109.406080
88.552541,109.387050
90.052541,109.387050
90.148212,109.406080
90.229318,109.460273
90.283511,109.541379
90.302541,109.637050
Z" /> 
<path style="fill:#000000; fill-opacity:1.000000; stroke:none;fill-rule:evenodd;"
d="M 90.302541,109.037050
90.283511,109.132721
90.229318,109.213827
90.148212,109.268020
90.052541,109.287050
88.552541,109.287050
88.456870,109.268020
88.375764,109.213827
88.321571,109.132721
88.302541,109.037050
88.302541,108.537050
88.321571,108.441379
88.375764,108.360273
88.456870,108.306080
88.552541,108.287050
90.052541,108.287050
90.148212,108.306080
90.229318,108.360273
90.283511,108.441379
90.302541,108.537050
Z" /> 
<path style="fill:#000000; fill-opacity:1.000000; stroke:none;fill-rule:evenodd;"
d="M 90.302541,107.937050
90.283511,108.032721
90.229318,108.113827
90.148212,108.168020
90.052541,108.187050
88.552541,108.187050
88.456870,108.168020
88.375764,108.113827
88.321571,108.032721
88.302541,107.937050
88.302541,107.437050
88.321571,107.341379
88.375764,107.260273
88.456870,107.206080
88.552541,107.187050
90.052541,107.187050
90.148212,107.206080
90.229318,107.260273
90.283511,107.341379
90.302541,107.437050
Z" /> 
<path style="fill:#000000; fill-opacity:1.000000; stroke:none;fill-rule:evenodd;"
d="M 90.302541,106.837050
90.283511,106.932721
90.229318,107.013827
90.148212,107.068020
90.052541,107.087050
88.552541,107.087050
88.456870,107.068020
88.375764,107.013827
88.321571,106.932721
88.302541,106.837050
88.302541,106.337050
88.321571,106.241379
88.375764,106.160273
88.456870,106.106080
88.552541,106.087050
90.052541,106.087050
90.148212,106.106080
90.229318,106.160273
90.283511,106.241379
90.302541,106.337050
Z" /> 
<path style="fill:#000000; fill-opacity:1.000000; stroke:none;fill-rule:evenodd;"
d="M 90.302541,105.737050
90.283511,105.832721
90.229318,105.913827
90.148212,105.968020
90.052541,105.987050
88.552541,105.987050
88.456870,105.968020
88.375764,105.913827
88.321571,105.832721
88.302541,105.737050
88.302541,105.237050
88.321571,105.141379
88.375764,105.060273
88.456870,105.006080
88.552541,104.987050
90.052541,104.987050
90.148212,105.006080
90.229318,105.060273
90.283511,105.141379
90.302541,105.237050
Z" /> 
<path style="fill:#000000; fill-opacity:1.000000; stroke:none;fill-rule:evenodd;"
d="M 90.302541,102.737050
90.283511,102.832721
90.229318,102.913827
90.148212,102.968020
90.052541,102.987050
88.552541,102.987050
88.456870,102.968020
88.375764,102.913827
88.321571,102.832721
88.302541,102.737050
88.302541,102.237050
88.321571,102.141379
88.375764,102.060273
88.456870,102.006080
88.552541,101.987050
90.052541,101.987050
90.148212,102.006080
90.229318,102.060273
90.283511,102.141379
90.302541,102.237050
Z" /> 
<path style="fill:#000000; fill-opacity:1.000000; stroke:none;fill-rule:evenodd;"
d="M 90.302541,101.637050
90.283511,101.732721
90.229318,101.813827
90.148212,101.868020
90.052541,101.887050
88.552541,101.887050
88.456870,101.868020
88.375764,101.813827
88.321571,101.732721
88.302541,101.637050
88.302541,101.137050
88.321571,101.041379
88.375764,100.960273
88.456870,100.906080
88.552541,100.887050
90.052541,100.887050
90.148212,100.906080
90.229318,100.960273
90.283511,101.041379
90.302541,101.137050
Z" /> 
<path style="fill:#000000; fill-opacity:1.000000; stroke:none;fill-rule:evenodd;"
d="M 90.302541,100.537050
90.283511,100.632721
90.229318,100.713827
90.148212,100.768020
90.052541,100.787050
88.552541,100.787050
88.456870,100.768020
88.375764,100.713827
88.321571,100.632721
88.302541,100.537050
88.302541,100.037050
88.321571,99.941379
88.375764,99.860273
88.456870,99.806080
88.552541,99.787050
90.052541,99.787050
90.148212,99.806080
90.229318,99.860273
90.283511,99.941379
90.302541,100.037050
Z" /> 
<path style="fill:#000000; fill-opacity:1.000000; stroke:none;fill-rule:evenodd;"
d="M 90.302541,99.437050
90.283511,99.532721
90.229318,99.613827
90.148212,99.668020
90.052541,99.687050
88.552541,99.687050
88.456870,99.668020
88.375764,99.613827
88.321571,99.532721
88.302541,99.437050
88.302541,98.937050
88.321571,98.841379
88.375764,98.760273
88.456870,98.706080
88.552541,98.687050
90.052541,98.687050
90.148212,98.706080
90.229318,98.760273
90.283511,98.841379
90.302541,98.937050
Z" /> 
<path style="fill:#000000; fill-opacity:1.000000; stroke:none;fill-rule:evenodd;"
d="M 90.302541,98.337050
90.283511,98.432721
90.229318,98.513827
90.148212,98.568020
90.052541,98.587050
88.552541,98.587050
88.456870,98.568020
88.375764,98.513827
88.321571,98.432721
88.302541,98.337050
88.302541,97.837050
88.321571,97.741379
88.375764,97.660273
88.456870,97.606080
88.552541,97.587050
90.052541,97.587050
90.148212,97.606080
90.229318,97.660273
90.283511,97.741379
90.302541,97.837050
Z" /> 
<path style="fill:#000000; fill-opacity:1.000000; stroke:none;fill-rule:evenodd;"
d="M 78.302541,98.337050
78.283511,98.432721
78.229318,98.513827
78.148212,98.568020
78.052541,98.587050
76.552541,98.587050
76.456870,98.568020
76.375764,98.513827
76.321571,98.432721
76.302541,98.337050
76.302541,97.837050
76.321571,97.741379
76.375764,97.660273
76.456870,97.606080
76.552541,97.587050
78.052541,97.587050
78.148212,97.606080
78.229318,97.660273
78.283511,97.741379
78.302541,97.837050
Z" /> 
<path style="fill:#000000; fill-opacity:1.000000; stroke:none;fill-rule:evenodd;"
d="M 78.302541,99.437050
78.283511,99.532721
78.229318,99.613827
78.148212,99.668020
78.052541,99.687050
76.552541,99.687050
76.456870,99.668020
76.375764,99.613827
76.321571,99.532721
76.302541,99.437050
76.302541,98.937050
76.321571,98.841379
76.375764,98.760273
76.456870,98.706080
76.552541,98.687050
78.052541,98.687050
78.148212,98.706080
78.229318,98.760273
78.283511,98.841379
78.302541,98.937050
Z" /> 
<path style="fill:#000000; fill-opacity:1.000000; stroke:none;fill-rule:evenodd;"
d="M 78.302541,100.537050
78.283511,100.632721
78.229318,100.713827
78.148212,100.768020
78.052541,100.787050
76.552541,100.787050
76.456870,100.768020
76.375764,100.713827
76.321571,100.632721
76.302541,100.537050
76.302541,100.037050
76.321571,99.941379
76.375764,99.860273
76.456870,99.806080
76.552541,99.787050
78.052541,99.787050
78.148212,99.806080
78.229318,99.860273
78.283511,99.941379
78.302541,100.037050
Z" /> 
<path style="fill:#000000; fill-opacity:1.000000; stroke:none;fill-rule:evenodd;"
d="M 78.302541,101.637050
78.283511,101.732721
78.229318,101.813827
78.148212,101.868020
78.052541,101.887050
76.552541,101.887050
76.456870,101.868020
76.375764,101.813827
76.321571,101.732721
76.302541,101.637050
76.302541,101.137050
76.321571,101.041379
76.375764,100.960273
76.456870,100.906080
76.552541,100.887050
78.052541,100.887050
78.148212,100.906080
78.229318,100.960273
78.283511,101.041379
78.302541,101.137050
Z" /> 
<path style="fill:#000000; fill-opacity:1.000000; stroke:none;fill-rule:evenodd;"
d="M 78.302541,102.737050
78.283511,102.832721
78.229318,102.913827
78.148212,102.968020
78.052541,102.987050
76.552541,102.987050
76.456870,102.968020
76.375764,102.913827
76.321571,102.832721
76.302541,102.737050
76.302541,102.237050
76.321571,102.141379
76.375764,102.060273
76.456870,102.006080
76.552541,101.987050
78.052541,101.987050
78.148212,102.006080
78.229318,102.060273
78.283511,102.141379
78.302541,102.237050
Z" /> 
<path style="fill:#000000; fill-opacity:1.000000; stroke:none;fill-rule:evenodd;"
d="M 78.302541,105.737050
78.283511,105.832721
78.229318,105.913827
78.148212,105.968020
78.052541,105.987050
76.552541,105.987050
76.456870,105.968020
76.375764,105.913827
76.321571,105.832721
76.302541,105.737050
76.302541,105.237050
76.321571,105.141379
76.375764,105.060273
76.456870,105.006080
76.552541,104.987050
78.052541,104.987050
78.148212,105.006080
78.229318,105.060273
78.283511,105.141379
78.302541,105.237050
Z" /> 
<path style="fill:#000000; fill-opacity:1.000000; stroke:none;fill-rule:evenodd;"
d="M 78.302541,106.837050
78.283511,106.932721
78.229318,107.013827
78.148212,107.068020
78.052541,107.087050
76.552541,107.087050
76.456870,107.068020
76.375764,107.013827
76.321571,106.932721
76.302541,106.837050
76.302541,106.337050
76.321571,106.241379
76.375764,106.160273
76.456870,106.106080
76.552541,106.087050
78.052541,106.087050
78.148212,106.106080
78.229318,106.160273
78.283511,106.241379
78.302541,106.337050
Z" /> 
<path style="fill:#000000; fill-opacity:1.000000; stroke:none;fill-rule:evenodd;"
d="M 78.302541,107.937050
78.283511,108.032721
78.229318,108.113827
78.148212,108.168020
78.052541,108.187050
76.552541,108.187050
76.456870,108.168020
76.375764,108.113827
76.321571,108.032721
76.302541,107.937050
76.302541,107.437050
76.321571,107.341379
76.375764,107.260273
76.456870,107.206080
76.552541,107.187050
78.052541,107.187050
78.148212,107.206080
78.229318,107.260273
78.283511,107.341379
78.302541,107.437050
Z" /> 
<path style="fill:#000000; fill-opacity:1.000000; stroke:none;fill-rule:evenodd;"
d="M 78.302541,109.037050
78.283511,109.132721
78.229318,109.213827
78.148212,109.268020
78.052541,109.287050
76.552541,109.287050
76.456870,109.268020
76.375764,109.213827
76.321571,109.132721
76.302541,109.037050
76.302541,108.537050
76.321571,108.441379
76.375764,108.360273
76.456870,108.306080
76.552541,108.287050
78.052541,108.287050
78.148212,108.306080
78.229318,108.360273
78.283511,108.441379
78.302541,108.537050
Z" /> 
<path style="fill:#000000; fill-opacity:1.000000; stroke:none;fill-rule:evenodd;"
d="M 78.302541,110.137050
78.283511,110.232721
78.229318,110.313827
78.148212,110.368020
78.052541,110.387050
76.552541,110.387050
76.456870,110.368020
76.375764,110.313827
76.321571,110.232721
76.302541,110.137050
76.302541,109.637050
76.321571,109.541379
76.375764,109.460273
76.456870,109.406080
76.552541,109.387050
78.052541,109.387050
78.148212,109.406080
78.229318,109.460273
78.283511,109.541379
78.302541,109.637050
Z" /> 
<path style="fill:#000000; fill-opacity:1.000000; stroke:none;fill-rule:evenodd;"
d="M 78.302541,111.237050
78.283511,111.332721
78.229318,111.413827
78.148212,111.468020
78.052541,111.487050
76.552541,111.487050
76.456870,111.468020
76.375764,111.413827
76.321571,111.332721
76.302541,111.237050
76.302541,110.737050
76.321571,110.641379
76.375764,110.560273
76.456870,110.506080
76.552541,110.487050
78.052541,110.487050
78.148212,110.506080
78.229318,110.560273
78.283511,110.641379
78.302541,110.737050
Z" /> 
<path style="fill:#000000; fill-opacity:1.000000; stroke:none;fill-rule:evenodd;"
d="M 78.302541,112.337050
78.283511,112.432721
78.229318,112.513827
78.148212,112.568020
78.052541,112.587050
76.552541,112.587050
76.456870,112.568020
76.375764,112.513827
76.321571,112.432721
76.302541,112.337050
76.302541,111.837050
76.321571,111.741379
76.375764,111.660273
76.456870,111.606080
76.552541,111.587050
78.052541,111.587050
78.148212,111.606080
78.229318,111.660273
78.283511,111.741379
78.302541,111.837050
Z" /> 
<path style="fill:#000000; fill-opacity:1.000000; stroke:none;fill-rule:evenodd;"
d="M 75.495400,61.013400
75.503012,60.975132
75.524689,60.942689
75.557132,60.921012
75.595400,60.913400
78.095400,60.913400
78.133668,60.921012
78.166111,60.942689
78.187788,60.975132
78.195400,61.013400
78.195400,62.513400
78.187788,62.551668
78.166111,62.584111
78.133668,62.605788
78.095400,62.613400
75.595400,62.613400
75.557132,62.605788
75.524689,62.584111
75.503012,62.551668
75.495400,62.513400
Z" /> 
<path style="fill:#000000; fill-opacity:1.000000; stroke:none;fill-rule:evenodd;"
d="M 90.995400,59.013400
91.003012,58.975132
91.024689,58.942689
91.057132,58.921012
91.095400,58.913400
93.595400,58.913400
93.633668,58.921012
93.666111,58.942689
93.687788,58.975132
93.695400,59.013400
93.695400,60.513400
93.687788,60.551668
93.666111,60.584111
93.633668,60.605788
93.595400,60.613400
91.095400,60.613400
91.057132,60.605788
91.024689,60.584111
91.003012,60.551668
90.995400,60.513400
Z" /> 
<path style="fill:#000000; fill-opacity:1.000000; stroke:none;fill-rule:evenodd;"
d="M 90.995400,73.013400
91.003012,72.975132
91.024689,72.942689
91.057132,72.921012
91.095400,72.913400
93.595400,72.913400
93.633668,72.921012
93.666111,72.942689
93.687788,72.975132
93.695400,73.013400
93.695400,74.513400
93.687788,74.551668
93.666111,74.584111
93.633668,74.605788
93.595400,74.613400
91.095400,74.613400
91.057132,74.605788
91.024689,74.584111
91.003012,74.551668
90.995400,74.513400
Z" /> 
<path style="fill:#000000; fill-opacity:1.000000; stroke:none;fill-rule:evenodd;"
d="M 90.995400,71.013400
91.003012,70.975132
91.024689,70.942689
91.057132,70.921012
91.095400,70.913400
93.595400,70.913400
93.633668,70.921012
93.666111,70.942689
93.687788,70.975132
93.695400,71.013400
93.695400,72.513400
93.687788,72.551668
93.666111,72.584111
93.633668,72.605788
93.595400,72.613400
91.095400,72.613400
91.057132,72.605788
91.024689,72.584111
91.003012,72.551668
90.995400,72.513400
Z" /> 
<path style="fill:#000000; fill-opacity:1.000000; stroke:none;fill-rule:evenodd;"
d="M 90.995400,69.013400
91.003012,68.975132
91.024689,68.942689
91.057132,68.921012
91.095400,68.913400
93.595400,68.913400
93.633668,68.921012
93.666111,68.942689
93.687788,68.975132
93.695400,69.013400
93.695400,70.513400
93.687788,70.551668
93.666111,70.584111
93.633668,70.605788
93.595400,70.613400
91.095400,70.613400
91.057132,70.605788
91.024689,70.584111
91.003012,70.551668
90.995400,70.513400
Z" /> 
<path style="fill:#000000; fill-opacity:1.000000; stroke:none;fill-rule:evenodd;"
d="M 90.995400,67.013400
91.003012,66.975132
91.024689,66.942689
91.057132,66.921012
91.095400,66.913400
93.595400,66.913400
93.633668,66.921012
93.666111,66.942689
93.687788,66.975132
93.695400,67.013400
93.695400,68.513400
93.687788,68.551668
93.666111,68.584111
93.633668,68.605788
93.595400,68.613400
91.095400,68.613400
91.057132,68.605788
91.024689,68.584111
91.003012,68.551668
90.995400,68.513400
Z" /> 
<path style="fill:#000000; fill-opacity:1.000000; stroke:none;fill-rule:evenodd;"
d="M 90.995400,65.013400
91.003012,64.975132
91.024689,64.942689
91.057132,64.921012
91.095400,64.913400
93.595400,64.913400
93.633668,64.921012
93.666111,64.942689
93.687788,64.975132
93.695400,65.013400
93.695400,66.513400
93.687788,66.551668
93.666111,66.584111
93.633668,66.605788
93.595400,66.613400
91.095400,66.613400
91.057132,66.605788
91.024689,66.584111
91.003012,66.551668
90.995400,66.513400
Z" /> 
<path style="fill:#000000; fill-opacity:1.000000; stroke:none;fill-rule:evenodd;"
d="M 90.995400,63.013400
91.003012,62.975132
91.024689,62.942689
91.057132,62.921012
91.095400,62.913400
93.595400,62.913400
93.633668,62.921012
93.666111,62.942689
93.687788,62.975132
93.695400,63.013400
93.695400,64.513400
93.687788,64.551668
93.666111,64.584111
93.633668,64.605788
93.595400,64.613400
91.095400,64.613400
91.057132,64.605788
91.024689,64.584111
91.003012,64.551668
90.995400,64.513400
Z" /> 
<path style="fill:#000000; fill-opacity:1.000000; stroke:none;fill-rule:evenodd;"
d="M 90.995400,61.013400
91.003012,60.975132
91.024689,60.942689
91.057132,60.921012
91.095400,60.913400
93.595400,60.913400
93.633668,60.921012
93.666111,60.942689
93.687788,60.975132
93.695400,61.013400
93.695400,62.513400
93.687788,62.551668
93.666111,62.584111
93.633668,62.605788
93.595400,62.613400
91.095400,62.613400
91.057132,62.605788
91.024689,62.584111
91.003012,62.551668
90.995400,62.513400
Z" /> 
<path style="fill:#000000; fill-opacity:1.000000; stroke:none;fill-rule:evenodd;"
d="M 75.495400,73.013400
75.503012,72.975132
75.524689,72.942689
75.557132,72.921012
75.595400,72.913400
78.095400,72.913400
78.133668,72.921012
78.166111,72.942689
78.187788,72.975132
78.195400,73.013400
78.195400,74.513400
78.187788,74.551668
78.166111,74.584111
78.133668,74.605788
78.095400,74.613400
75.595400,74.613400
75.557132,74.605788
75.524689,74.584111
75.503012,74.551668
75.495400,74.513400
Z" /> 
<path style="fill:#000000; fill-opacity:1.000000; stroke:none;fill-rule:evenodd;"
d="M 75.495400,71.013400
75.503012,70.975132
75.524689,70.942689
75.557132,70.921012
75.595400,70.913400
78.095400,70.913400
78.133668,70.921012
78.166111,70.942689
78.187788,70.975132
78.195400,71.013400
78.195400,72.513400
78.187788,72.551668
78.166111,72.584111
78.133668,72.605788
78.095400,72.613400
75.595400,72.613400
75.557132,72.605788
75.524689,72.584111
75.503012,72.551668
75.495400,72.513400
Z" /> 
<path style="fill:#000000; fill-opacity:1.000000; stroke:none;fill-rule:evenodd;"
d="M 75.495400,69.013400
75.503012,68.975132
75.524689,68.942689
75.557132,68.921012
75.595400,68.913400
78.095400,68.913400
78.133668,68.921012
78.166111,68.942689
78.187788,68.975132
78.195400,69.013400
78.195400,70.513400
78.187788,70.551668
78.166111,70.584111
78.133668,70.605788
78.095400,70.613400
75.595400,70.613400
75.557132,70.605788
75.524689,70.584111
75.503012,70.551668
75.495400,70.513400
Z" /> 
<path style="fill:#000000; fill-opacity:1.000000; stroke:none;fill-rule:evenodd;"
d="M 75.495400,67.013400
75.503012,66.975132
75.524689,66.942689
75.557132,66.921012
75.595400,66.913400
78.095400,66.913400
78.133668,66.921012
78.166111,66.942689
78.187788,66.975132
78.195400,67.013400
78.195400,68.513400
78.187788,68.551668
78.166111,68.584111
78.133668,68.605788
78.095400,68.613400
75.595400,68.613400
75.557132,68.605788
75.524689,68.584111
75.503012,68.551668
75.495400,68.513400
Z" /> 
<path style="fill:#000000; fill-opacity:1.000000; stroke:none;fill-rule:evenodd;"
d="M 75.495400,65.013400
75.503012,64.975132
75.524689,64.942689
75.557132,64.921012
75.595400,64.913400
78.095400,64.913400
78.133668,64.921012
78.166111,64.942689
78.187788,64.975132
78.195400,65.013400
78.195400,66.513400
78.187788,66.551668
78.166111,66.584111
78.133668,66.605788
78.095400,66.613400
75.595400,66.613400
75.557132,66.605788
75.524689,66.584111
75.503012,66.551668
75.495400,66.513400
Z" /> 
<path style="fill:#000000; fill-opacity:1.000000; stroke:none;fill-rule:evenodd;"
d="M 75.495400,63.013400
75.503012,62.975132
75.524689,62.942689
75.557132,62.921012
75.595400,62.913400
78.095400,62.913400
78.133668,62.921012
78.166111,62.942689
78.187788,62.975132
78.195400,63.013400
78.195400,64.513400
78.187788,64.551668
78.166111,64.584111
78.133668,64.605788
78.095400,64.613400
75.595400,64.613400
75.557132,64.605788
75.524689,64.584111
75.503012,64.551668
75.495400,64.513400
Z" /> 
<path style="fill:#000000; fill-opacity:1.000000; stroke:none;fill-rule:evenodd;"
d="M 75.495400,59.013400
75.503012,58.975132
75.524689,58.942689
75.557132,58.921012
75.595400,58.913400
78.095400,58.913400
78.133668,58.921012
78.166111,58.942689
78.187788,58.975132
78.195400,59.013400
78.195400,60.513400
78.187788,60.551668
78.166111,60.584111
78.133668,60.605788
78.095400,60.613400
75.595400,60.613400
75.557132,60.605788
75.524689,60.584111
75.503012,60.551668
75.495400,60.513400
Z" /> 
</g> 
</svg>
