<?xml version="1.0" standalone="no"?>
 <!DOCTYPE svg PUBLIC "-//W3C//DTD SVG 1.1//EN" 
 "http://www.w3.org/Graphics/SVG/1.1/DTD/svg11.dtd"> 
<svg
  xmlns:svg="http://www.w3.org/2000/svg"
  xmlns="http://www.w3.org/2000/svg"
  xmlns:xlink="http://www.w3.org/1999/xlink"
  version="1.1"
  width="210.007200mm" height="148.005800mm" viewBox="0.000000 0.000000 210.007200 148.005800">
<title>SVG Image created as solder_masks-F_Mask.svg date 2024/03/01 17:08:01 </title>
  <desc>Image generated by PCBNEW </desc>
<g style="fill:#000000; fill-opacity:1.000000;stroke:#000000; stroke-opacity:1.000000;
stroke-linecap:round; stroke-linejoin:round;"
 transform="translate(0 0) scale(1 1)">
</g>
<g style="fill:none; 
stroke:#000000; stroke-width:0.500000; stroke-opacity:1; 
stroke-linecap:round; stroke-linejoin:round;">
<text x="19.715341" y="58.579650"
textLength="15.766666" font-size="2.666666" lengthAdjust="spacingAndGlyphs"
text-anchor="start" opacity="0">NEO-M8P</text>
<g class="stroked-text"><desc>NEO-M8P</desc>
<path d="M20.520478 58.308888
L20.520478 56.308888
" />
<path d="M20.520478 56.308888
L21.663335 58.308888
" />
<path d="M21.663335 58.308888
L21.663335 56.308888
" />
<path d="M22.615716 57.261269
L23.282383 57.261269
" />
<path d="M23.568097 58.308888
L22.615716 58.308888
" />
<path d="M22.615716 58.308888
L22.615716 56.308888
" />
<path d="M22.615716 56.308888
L23.568097 56.308888
" />
<path d="M24.806192 56.308888
L25.187145 56.308888
" />
<path d="M25.187145 56.308888
L25.377621 56.404126
" />
<path d="M25.377621 56.404126
L25.568097 56.594602
" />
<path d="M25.568097 56.594602
L25.663335 56.975554
" />
<path d="M25.663335 56.975554
L25.663335 57.642221
" />
<path d="M25.663335 57.642221
L25.568097 58.023173
" />
<path d="M25.568097 58.023173
L25.377621 58.213650
" />
<path d="M25.377621 58.213650
L25.187145 58.308888
" />
<path d="M25.187145 58.308888
L24.806192 58.308888
" />
<path d="M24.806192 58.308888
L24.615716 58.213650
" />
<path d="M24.615716 58.213650
L24.425240 58.023173
" />
<path d="M24.425240 58.023173
L24.330002 57.642221
" />
<path d="M24.330002 57.642221
L24.330002 56.975554
" />
<path d="M24.330002 56.975554
L24.425240 56.594602
" />
<path d="M24.425240 56.594602
L24.615716 56.404126
" />
<path d="M24.615716 56.404126
L24.806192 56.308888
" />
<path d="M26.520478 57.546983
L28.044288 57.546983
" />
<path d="M28.996668 58.308888
L28.996668 56.308888
" />
<path d="M28.996668 56.308888
L29.663335 57.737459
" />
<path d="M29.663335 57.737459
L30.330001 56.308888
" />
<path d="M30.330001 56.308888
L30.330001 58.308888
" />
<path d="M31.568096 57.166030
L31.377620 57.070792
" />
<path d="M31.377620 57.070792
L31.282382 56.975554
" />
<path d="M31.282382 56.975554
L31.187144 56.785078
" />
<path d="M31.187144 56.785078
L31.187144 56.689840
" />
<path d="M31.187144 56.689840
L31.282382 56.499364
" />
<path d="M31.282382 56.499364
L31.377620 56.404126
" />
<path d="M31.377620 56.404126
L31.568096 56.308888
" />
<path d="M31.568096 56.308888
L31.949049 56.308888
" />
<path d="M31.949049 56.308888
L32.139525 56.404126
" />
<path d="M32.139525 56.404126
L32.234763 56.499364
" />
<path d="M32.234763 56.499364
L32.330001 56.689840
" />
<path d="M32.330001 56.689840
L32.330001 56.785078
" />
<path d="M32.330001 56.785078
L32.234763 56.975554
" />
<path d="M32.234763 56.975554
L32.139525 57.070792
" />
<path d="M32.139525 57.070792
L31.949049 57.166030
" />
<path d="M31.949049 57.166030
L31.568096 57.166030
" />
<path d="M31.568096 57.166030
L31.377620 57.261269
" />
<path d="M31.377620 57.261269
L31.282382 57.356507
" />
<path d="M31.282382 57.356507
L31.187144 57.546983
" />
<path d="M31.187144 57.546983
L31.187144 57.927935
" />
<path d="M31.187144 57.927935
L31.282382 58.118411
" />
<path d="M31.282382 58.118411
L31.377620 58.213650
" />
<path d="M31.377620 58.213650
L31.568096 58.308888
" />
<path d="M31.568096 58.308888
L31.949049 58.308888
" />
<path d="M31.949049 58.308888
L32.139525 58.213650
" />
<path d="M32.139525 58.213650
L32.234763 58.118411
" />
<path d="M32.234763 58.118411
L32.330001 57.927935
" />
<path d="M32.330001 57.927935
L32.330001 57.546983
" />
<path d="M32.330001 57.546983
L32.234763 57.356507
" />
<path d="M32.234763 57.356507
L32.139525 57.261269
" />
<path d="M32.139525 57.261269
L31.949049 57.166030
" />
<path d="M33.187144 58.308888
L33.187144 56.308888
" />
<path d="M33.187144 56.308888
L33.949049 56.308888
" />
<path d="M33.949049 56.308888
L34.139525 56.404126
" />
<path d="M34.139525 56.404126
L34.234763 56.499364
" />
<path d="M34.234763 56.499364
L34.330001 56.689840
" />
<path d="M34.330001 56.689840
L34.330001 56.975554
" />
<path d="M34.330001 56.975554
L34.234763 57.166030
" />
<path d="M34.234763 57.166030
L34.139525 57.261269
" />
<path d="M34.139525 57.261269
L33.949049 57.356507
" />
<path d="M33.949049 57.356507
L33.187144 57.356507
" />
</g><text x="84.892140" y="59.510850"
textLength="13.766666" font-size="2.666666" lengthAdjust="spacingAndGlyphs"
text-anchor="start" opacity="0">CAM-M8</text>
<g class="stroked-text"><desc>CAM-M8</desc>
<path d="M86.840134 59.049611
L86.744896 59.144850
" />
<path d="M86.744896 59.144850
L86.459182 59.240088
" />
<path d="M86.459182 59.240088
L86.268706 59.240088
" />
<path d="M86.268706 59.240088
L85.982991 59.144850
" />
<path d="M85.982991 59.144850
L85.792515 58.954373
" />
<path d="M85.792515 58.954373
L85.697277 58.763897
" />
<path d="M85.697277 58.763897
L85.602039 58.382945
" />
<path d="M85.602039 58.382945
L85.602039 58.097230
" />
<path d="M85.602039 58.097230
L85.697277 57.716278
" />
<path d="M85.697277 57.716278
L85.792515 57.525802
" />
<path d="M85.792515 57.525802
L85.982991 57.335326
" />
<path d="M85.982991 57.335326
L86.268706 57.240088
" />
<path d="M86.268706 57.240088
L86.459182 57.240088
" />
<path d="M86.459182 57.240088
L86.744896 57.335326
" />
<path d="M86.744896 57.335326
L86.840134 57.430564
" />
<path d="M87.602039 58.668659
L88.554420 58.668659
" />
<path d="M87.411563 59.240088
L88.078229 57.240088
" />
<path d="M88.078229 57.240088
L88.744896 59.240088
" />
<path d="M89.411563 59.240088
L89.411563 57.240088
" />
<path d="M89.411563 57.240088
L90.078230 58.668659
" />
<path d="M90.078230 58.668659
L90.744896 57.240088
" />
<path d="M90.744896 57.240088
L90.744896 59.240088
" />
<path d="M91.697277 58.478183
L93.221087 58.478183
" />
<path d="M94.173467 59.240088
L94.173467 57.240088
" />
<path d="M94.173467 57.240088
L94.840134 58.668659
" />
<path d="M94.840134 58.668659
L95.506800 57.240088
" />
<path d="M95.506800 57.240088
L95.506800 59.240088
" />
<path d="M96.744895 58.097230
L96.554419 58.001992
" />
<path d="M96.554419 58.001992
L96.459181 57.906754
" />
<path d="M96.459181 57.906754
L96.363943 57.716278
" />
<path d="M96.363943 57.716278
L96.363943 57.621040
" />
<path d="M96.363943 57.621040
L96.459181 57.430564
" />
<path d="M96.459181 57.430564
L96.554419 57.335326
" />
<path d="M96.554419 57.335326
L96.744895 57.240088
" />
<path d="M96.744895 57.240088
L97.125848 57.240088
" />
<path d="M97.125848 57.240088
L97.316324 57.335326
" />
<path d="M97.316324 57.335326
L97.411562 57.430564
" />
<path d="M97.411562 57.430564
L97.506800 57.621040
" />
<path d="M97.506800 57.621040
L97.506800 57.716278
" />
<path d="M97.506800 57.716278
L97.411562 57.906754
" />
<path d="M97.411562 57.906754
L97.316324 58.001992
" />
<path d="M97.316324 58.001992
L97.125848 58.097230
" />
<path d="M97.125848 58.097230
L96.744895 58.097230
" />
<path d="M96.744895 58.097230
L96.554419 58.192469
" />
<path d="M96.554419 58.192469
L96.459181 58.287707
" />
<path d="M96.459181 58.287707
L96.363943 58.478183
" />
<path d="M96.363943 58.478183
L96.363943 58.859135
" />
<path d="M96.363943 58.859135
L96.459181 59.049611
" />
<path d="M96.459181 59.049611
L96.554419 59.144850
" />
<path d="M96.554419 59.144850
L96.744895 59.240088
" />
<path d="M96.744895 59.240088
L97.125848 59.240088
" />
<path d="M97.125848 59.240088
L97.316324 59.144850
" />
<path d="M97.316324 59.144850
L97.411562 59.049611
" />
<path d="M97.411562 59.049611
L97.506800 58.859135
" />
<path d="M97.506800 58.859135
L97.506800 58.478183
" />
<path d="M97.506800 58.478183
L97.411562 58.287707
" />
<path d="M97.411562 58.287707
L97.316324 58.192469
" />
<path d="M97.316324 58.192469
L97.125848 58.097230
" />
</g><text x="51.881200" y="58.724800"
textLength="15.766667" font-size="2.666666" lengthAdjust="spacingAndGlyphs"
text-anchor="start" opacity="0">G-NiceRF</text>
<g class="stroked-text"><desc>G-NiceRF</desc>
<path d="M53.733956 56.549276
L53.543480 56.454038
" />
<path d="M53.543480 56.454038
L53.257766 56.454038
" />
<path d="M53.257766 56.454038
L52.972051 56.549276
" />
<path d="M52.972051 56.549276
L52.781575 56.739752
" />
<path d="M52.781575 56.739752
L52.686337 56.930228
" />
<path d="M52.686337 56.930228
L52.591099 57.311180
" />
<path d="M52.591099 57.311180
L52.591099 57.596895
" />
<path d="M52.591099 57.596895
L52.686337 57.977847
" />
<path d="M52.686337 57.977847
L52.781575 58.168323
" />
<path d="M52.781575 58.168323
L52.972051 58.358800
" />
<path d="M52.972051 58.358800
L53.257766 58.454038
" />
<path d="M53.257766 58.454038
L53.448242 58.454038
" />
<path d="M53.448242 58.454038
L53.733956 58.358800
" />
<path d="M53.733956 58.358800
L53.829194 58.263561
" />
<path d="M53.829194 58.263561
L53.829194 57.596895
" />
<path d="M53.829194 57.596895
L53.448242 57.596895
" />
<path d="M54.686337 57.692133
L56.210147 57.692133
" />
<path d="M57.162527 58.454038
L57.162527 56.454038
" />
<path d="M57.162527 56.454038
L58.305384 58.454038
" />
<path d="M58.305384 58.454038
L58.305384 56.454038
" />
<path d="M59.257765 58.454038
L59.257765 57.120704
" />
<path d="M59.257765 56.454038
L59.162527 56.549276
" />
<path d="M59.162527 56.549276
L59.257765 56.644514
" />
<path d="M59.257765 56.644514
L59.353003 56.549276
" />
<path d="M59.353003 56.549276
L59.257765 56.454038
" />
<path d="M59.257765 56.454038
L59.257765 56.644514
" />
<path d="M61.067289 58.358800
L60.876813 58.454038
" />
<path d="M60.876813 58.454038
L60.495860 58.454038
" />
<path d="M60.495860 58.454038
L60.305384 58.358800
" />
<path d="M60.305384 58.358800
L60.210146 58.263561
" />
<path d="M60.210146 58.263561
L60.114908 58.073085
" />
<path d="M60.114908 58.073085
L60.114908 57.501657
" />
<path d="M60.114908 57.501657
L60.210146 57.311180
" />
<path d="M60.210146 57.311180
L60.305384 57.215942
" />
<path d="M60.305384 57.215942
L60.495860 57.120704
" />
<path d="M60.495860 57.120704
L60.876813 57.120704
" />
<path d="M60.876813 57.120704
L61.067289 57.215942
" />
<path d="M62.686337 58.358800
L62.495861 58.454038
" />
<path d="M62.495861 58.454038
L62.114908 58.454038
" />
<path d="M62.114908 58.454038
L61.924432 58.358800
" />
<path d="M61.924432 58.358800
L61.829194 58.168323
" />
<path d="M61.829194 58.168323
L61.829194 57.406419
" />
<path d="M61.829194 57.406419
L61.924432 57.215942
" />
<path d="M61.924432 57.215942
L62.114908 57.120704
" />
<path d="M62.114908 57.120704
L62.495861 57.120704
" />
<path d="M62.495861 57.120704
L62.686337 57.215942
" />
<path d="M62.686337 57.215942
L62.781575 57.406419
" />
<path d="M62.781575 57.406419
L62.781575 57.596895
" />
<path d="M62.781575 57.596895
L61.829194 57.787371
" />
<path d="M64.781575 58.454038
L64.114908 57.501657
" />
<path d="M63.638718 58.454038
L63.638718 56.454038
" />
<path d="M63.638718 56.454038
L64.400623 56.454038
" />
<path d="M64.400623 56.454038
L64.591099 56.549276
" />
<path d="M64.591099 56.549276
L64.686337 56.644514
" />
<path d="M64.686337 56.644514
L64.781575 56.834990
" />
<path d="M64.781575 56.834990
L64.781575 57.120704
" />
<path d="M64.781575 57.120704
L64.686337 57.311180
" />
<path d="M64.686337 57.311180
L64.591099 57.406419
" />
<path d="M64.591099 57.406419
L64.400623 57.501657
" />
<path d="M64.400623 57.501657
L63.638718 57.501657
" />
<path d="M66.305385 57.406419
L65.638718 57.406419
" />
<path d="M65.638718 58.454038
L65.638718 56.454038
" />
<path d="M65.638718 56.454038
L66.591099 56.454038
" />
</g><text x="22.468000" y="20.574000"
textLength="11.757143" font-size="4.000000" lengthAdjust="spacingAndGlyphs"
text-anchor="start" opacity="0">LoRa</text>
<g class="stroked-text"><desc>LoRa</desc>
<path d="M24.939804 20.180857
L23.511232 20.180857
" />
<path d="M23.511232 20.180857
L23.511232 17.180857
" />
<path d="M26.368375 20.180857
L26.082660 20.038000
" />
<path d="M26.082660 20.038000
L25.939803 19.895142
" />
<path d="M25.939803 19.895142
L25.796946 19.609428
" />
<path d="M25.796946 19.609428
L25.796946 18.752285
" />
<path d="M25.796946 18.752285
L25.939803 18.466571
" />
<path d="M25.939803 18.466571
L26.082660 18.323714
" />
<path d="M26.082660 18.323714
L26.368375 18.180857
" />
<path d="M26.368375 18.180857
L26.796946 18.180857
" />
<path d="M26.796946 18.180857
L27.082660 18.323714
" />
<path d="M27.082660 18.323714
L27.225518 18.466571
" />
<path d="M27.225518 18.466571
L27.368375 18.752285
" />
<path d="M27.368375 18.752285
L27.368375 19.609428
" />
<path d="M27.368375 19.609428
L27.225518 19.895142
" />
<path d="M27.225518 19.895142
L27.082660 20.038000
" />
<path d="M27.082660 20.038000
L26.796946 20.180857
" />
<path d="M26.796946 20.180857
L26.368375 20.180857
" />
<path d="M30.368375 20.180857
L29.368375 18.752285
" />
<path d="M28.654089 20.180857
L28.654089 17.180857
" />
<path d="M28.654089 17.180857
L29.796946 17.180857
" />
<path d="M29.796946 17.180857
L30.082661 17.323714
" />
<path d="M30.082661 17.323714
L30.225518 17.466571
" />
<path d="M30.225518 17.466571
L30.368375 17.752285
" />
<path d="M30.368375 17.752285
L30.368375 18.180857
" />
<path d="M30.368375 18.180857
L30.225518 18.466571
" />
<path d="M30.225518 18.466571
L30.082661 18.609428
" />
<path d="M30.082661 18.609428
L29.796946 18.752285
" />
<path d="M29.796946 18.752285
L28.654089 18.752285
" />
<path d="M32.939804 20.180857
L32.939804 18.609428
" />
<path d="M32.939804 18.609428
L32.796946 18.323714
" />
<path d="M32.796946 18.323714
L32.511232 18.180857
" />
<path d="M32.511232 18.180857
L31.939804 18.180857
" />
<path d="M31.939804 18.180857
L31.654089 18.323714
" />
<path d="M32.939804 20.038000
L32.654089 20.180857
" />
<path d="M32.654089 20.180857
L31.939804 20.180857
" />
<path d="M31.939804 20.180857
L31.654089 20.038000
" />
<path d="M31.654089 20.038000
L31.511232 19.752285
" />
<path d="M31.511232 19.752285
L31.511232 19.466571
" />
<path d="M31.511232 19.466571
L31.654089 19.180857
" />
<path d="M31.654089 19.180857
L31.939804 19.038000
" />
<path d="M31.939804 19.038000
L32.654089 19.038000
" />
<path d="M32.654089 19.038000
L32.939804 18.895142
" />
</g><text x="51.281200" y="28.952200"
textLength="14.909524" font-size="2.666666" lengthAdjust="spacingAndGlyphs"
text-anchor="start" opacity="0">RV-3032</text>
<g class="stroked-text"><desc>RV-3032</desc>
<path d="M53.229194 28.681438
L52.562527 27.729057
" />
<path d="M52.086337 28.681438
L52.086337 26.681438
" />
<path d="M52.086337 26.681438
L52.848242 26.681438
" />
<path d="M52.848242 26.681438
L53.038718 26.776676
" />
<path d="M53.038718 26.776676
L53.133956 26.871914
" />
<path d="M53.133956 26.871914
L53.229194 27.062390
" />
<path d="M53.229194 27.062390
L53.229194 27.348104
" />
<path d="M53.229194 27.348104
L53.133956 27.538580
" />
<path d="M53.133956 27.538580
L53.038718 27.633819
" />
<path d="M53.038718 27.633819
L52.848242 27.729057
" />
<path d="M52.848242 27.729057
L52.086337 27.729057
" />
<path d="M53.800623 26.681438
L54.467289 28.681438
" />
<path d="M54.467289 28.681438
L55.133956 26.681438
" />
<path d="M55.800623 27.919533
L57.324433 27.919533
" />
<path d="M58.086337 26.681438
L59.324432 26.681438
" />
<path d="M59.324432 26.681438
L58.657765 27.443342
" />
<path d="M58.657765 27.443342
L58.943480 27.443342
" />
<path d="M58.943480 27.443342
L59.133956 27.538580
" />
<path d="M59.133956 27.538580
L59.229194 27.633819
" />
<path d="M59.229194 27.633819
L59.324432 27.824295
" />
<path d="M59.324432 27.824295
L59.324432 28.300485
" />
<path d="M59.324432 28.300485
L59.229194 28.490961
" />
<path d="M59.229194 28.490961
L59.133956 28.586200
" />
<path d="M59.133956 28.586200
L58.943480 28.681438
" />
<path d="M58.943480 28.681438
L58.372051 28.681438
" />
<path d="M58.372051 28.681438
L58.181575 28.586200
" />
<path d="M58.181575 28.586200
L58.086337 28.490961
" />
<path d="M60.562527 26.681438
L60.753004 26.681438
" />
<path d="M60.753004 26.681438
L60.943480 26.776676
" />
<path d="M60.943480 26.776676
L61.038718 26.871914
" />
<path d="M61.038718 26.871914
L61.133956 27.062390
" />
<path d="M61.133956 27.062390
L61.229194 27.443342
" />
<path d="M61.229194 27.443342
L61.229194 27.919533
" />
<path d="M61.229194 27.919533
L61.133956 28.300485
" />
<path d="M61.133956 28.300485
L61.038718 28.490961
" />
<path d="M61.038718 28.490961
L60.943480 28.586200
" />
<path d="M60.943480 28.586200
L60.753004 28.681438
" />
<path d="M60.753004 28.681438
L60.562527 28.681438
" />
<path d="M60.562527 28.681438
L60.372051 28.586200
" />
<path d="M60.372051 28.586200
L60.276813 28.490961
" />
<path d="M60.276813 28.490961
L60.181575 28.300485
" />
<path d="M60.181575 28.300485
L60.086337 27.919533
" />
<path d="M60.086337 27.919533
L60.086337 27.443342
" />
<path d="M60.086337 27.443342
L60.181575 27.062390
" />
<path d="M60.181575 27.062390
L60.276813 26.871914
" />
<path d="M60.276813 26.871914
L60.372051 26.776676
" />
<path d="M60.372051 26.776676
L60.562527 26.681438
" />
<path d="M61.895861 26.681438
L63.133956 26.681438
" />
<path d="M63.133956 26.681438
L62.467289 27.443342
" />
<path d="M62.467289 27.443342
L62.753004 27.443342
" />
<path d="M62.753004 27.443342
L62.943480 27.538580
" />
<path d="M62.943480 27.538580
L63.038718 27.633819
" />
<path d="M63.038718 27.633819
L63.133956 27.824295
" />
<path d="M63.133956 27.824295
L63.133956 28.300485
" />
<path d="M63.133956 28.300485
L63.038718 28.490961
" />
<path d="M63.038718 28.490961
L62.943480 28.586200
" />
<path d="M62.943480 28.586200
L62.753004 28.681438
" />
<path d="M62.753004 28.681438
L62.181575 28.681438
" />
<path d="M62.181575 28.681438
L61.991099 28.586200
" />
<path d="M61.991099 28.586200
L61.895861 28.490961
" />
<path d="M63.895861 26.871914
L63.991099 26.776676
" />
<path d="M63.991099 26.776676
L64.181575 26.681438
" />
<path d="M64.181575 26.681438
L64.657766 26.681438
" />
<path d="M64.657766 26.681438
L64.848242 26.776676
" />
<path d="M64.848242 26.776676
L64.943480 26.871914
" />
<path d="M64.943480 26.871914
L65.038718 27.062390
" />
<path d="M65.038718 27.062390
L65.038718 27.252866
" />
<path d="M65.038718 27.252866
L64.943480 27.538580
" />
<path d="M64.943480 27.538580
L63.800623 28.681438
" />
<path d="M63.800623 28.681438
L65.038718 28.681438
" />
</g><path style="fill:#000000; fill-opacity:1.000000; stroke:none;fill-rule:evenodd;"
d="M 95.093281,78.956900
95.100132,78.922458
95.119641,78.893260
95.148839,78.873751
95.183281,78.866900
96.703281,78.866900
96.737723,78.873751
96.766921,78.893260
96.786430,78.922458
96.793281,78.956900
96.793281,79.676900
96.786430,79.711342
96.766921,79.740540
96.737723,79.760049
96.703281,79.766900
95.183281,79.766900
95.148839,79.760049
95.119641,79.740540
95.100132,79.711342
95.093281,79.676900
Z" /> 
<path style="fill:#000000; fill-opacity:1.000000; stroke:none;fill-rule:evenodd;"
d="M 95.093281,77.956900
95.100132,77.922458
95.119641,77.893260
95.148839,77.873751
95.183281,77.866900
96.703281,77.866900
96.737723,77.873751
96.766921,77.893260
96.786430,77.922458
96.793281,77.956900
96.793281,78.676900
96.786430,78.711342
96.766921,78.740540
96.737723,78.760049
96.703281,78.766900
95.183281,78.766900
95.148839,78.760049
95.119641,78.740540
95.100132,78.711342
95.093281,78.676900
Z" /> 
<path style="fill:#000000; fill-opacity:1.000000; stroke:none;fill-rule:evenodd;"
d="M 95.093281,76.956900
95.100132,76.922458
95.119641,76.893260
95.148839,76.873751
95.183281,76.866900
96.703281,76.866900
96.737723,76.873751
96.766921,76.893260
96.786430,76.922458
96.793281,76.956900
96.793281,77.676900
96.786430,77.711342
96.766921,77.740540
96.737723,77.760049
96.703281,77.766900
95.183281,77.766900
95.148839,77.760049
95.119641,77.740540
95.100132,77.711342
95.093281,77.676900
Z" /> 
<path style="fill:#000000; fill-opacity:1.000000; stroke:none;fill-rule:evenodd;"
d="M 95.093281,75.956900
95.100132,75.922458
95.119641,75.893260
95.148839,75.873751
95.183281,75.866900
96.703281,75.866900
96.737723,75.873751
96.766921,75.893260
96.786430,75.922458
96.793281,75.956900
96.793281,76.676900
96.786430,76.711342
96.766921,76.740540
96.737723,76.760049
96.703281,76.766900
95.183281,76.766900
95.148839,76.760049
95.119641,76.740540
95.100132,76.711342
95.093281,76.676900
Z" /> 
<path style="fill:#000000; fill-opacity:1.000000; stroke:none;fill-rule:evenodd;"
d="M 95.093281,74.956900
95.100132,74.922458
95.119641,74.893260
95.148839,74.873751
95.183281,74.866900
96.703281,74.866900
96.737723,74.873751
96.766921,74.893260
96.786430,74.922458
96.793281,74.956900
96.793281,75.676900
96.786430,75.711342
96.766921,75.740540
96.737723,75.760049
96.703281,75.766900
95.183281,75.766900
95.148839,75.760049
95.119641,75.740540
95.100132,75.711342
95.093281,75.676900
Z" /> 
<path style="fill:#000000; fill-opacity:1.000000; stroke:none;fill-rule:evenodd;"
d="M 95.093281,73.956900
95.100132,73.922458
95.119641,73.893260
95.148839,73.873751
95.183281,73.866900
96.703281,73.866900
96.737723,73.873751
96.766921,73.893260
96.786430,73.922458
96.793281,73.956900
96.793281,74.676900
96.786430,74.711342
96.766921,74.740540
96.737723,74.760049
96.703281,74.766900
95.183281,74.766900
95.148839,74.760049
95.119641,74.740540
95.100132,74.711342
95.093281,74.676900
Z" /> 
<path style="fill:#000000; fill-opacity:1.000000; stroke:none;fill-rule:evenodd;"
d="M 95.093281,72.956900
95.100132,72.922458
95.119641,72.893260
95.148839,72.873751
95.183281,72.866900
96.703281,72.866900
96.737723,72.873751
96.766921,72.893260
96.786430,72.922458
96.793281,72.956900
96.793281,73.676900
96.786430,73.711342
96.766921,73.740540
96.737723,73.760049
96.703281,73.766900
95.183281,73.766900
95.148839,73.760049
95.119641,73.740540
95.100132,73.711342
95.093281,73.676900
Z" /> 
<path style="fill:#000000; fill-opacity:1.000000; stroke:none;fill-rule:evenodd;"
d="M 95.093281,71.956900
95.100132,71.922458
95.119641,71.893260
95.148839,71.873751
95.183281,71.866900
96.703281,71.866900
96.737723,71.873751
96.766921,71.893260
96.786430,71.922458
96.793281,71.956900
96.793281,72.676900
96.786430,72.711342
96.766921,72.740540
96.737723,72.760049
96.703281,72.766900
95.183281,72.766900
95.148839,72.760049
95.119641,72.740540
95.100132,72.711342
95.093281,72.676900
Z" /> 
<path style="fill:#000000; fill-opacity:1.000000; stroke:none;fill-rule:evenodd;"
d="M 95.093281,70.956900
95.100132,70.922458
95.119641,70.893260
95.148839,70.873751
95.183281,70.866900
96.703281,70.866900
96.737723,70.873751
96.766921,70.893260
96.786430,70.922458
96.793281,70.956900
96.793281,71.676900
96.786430,71.711342
96.766921,71.740540
96.737723,71.760049
96.703281,71.766900
95.183281,71.766900
95.148839,71.760049
95.119641,71.740540
95.100132,71.711342
95.093281,71.676900
Z" /> 
<path style="fill:#000000; fill-opacity:1.000000; stroke:none;fill-rule:evenodd;"
d="M 95.093281,69.956900
95.100132,69.922458
95.119641,69.893260
95.148839,69.873751
95.183281,69.866900
96.703281,69.866900
96.737723,69.873751
96.766921,69.893260
96.786430,69.922458
96.793281,69.956900
96.793281,70.676900
96.786430,70.711342
96.766921,70.740540
96.737723,70.760049
96.703281,70.766900
95.183281,70.766900
95.148839,70.760049
95.119641,70.740540
95.100132,70.711342
95.093281,70.676900
Z" /> 
<path style="fill:#000000; fill-opacity:1.000000; stroke:none;fill-rule:evenodd;"
d="M 95.093281,68.956900
95.100132,68.922458
95.119641,68.893260
95.148839,68.873751
95.183281,68.866900
96.703281,68.866900
96.737723,68.873751
96.766921,68.893260
96.786430,68.922458
96.793281,68.956900
96.793281,69.676900
96.786430,69.711342
96.766921,69.740540
96.737723,69.760049
96.703281,69.766900
95.183281,69.766900
95.148839,69.760049
95.119641,69.740540
95.100132,69.711342
95.093281,69.676900
Z" /> 
<path style="fill:#000000; fill-opacity:1.000000; stroke:none;fill-rule:evenodd;"
d="M 95.093281,67.956900
95.100132,67.922458
95.119641,67.893260
95.148839,67.873751
95.183281,67.866900
96.703281,67.866900
96.737723,67.873751
96.766921,67.893260
96.786430,67.922458
96.793281,67.956900
96.793281,68.676900
96.786430,68.711342
96.766921,68.740540
96.737723,68.760049
96.703281,68.766900
95.183281,68.766900
95.148839,68.760049
95.119641,68.740540
95.100132,68.711342
95.093281,68.676900
Z" /> 
<path style="fill:#000000; fill-opacity:1.000000; stroke:none;fill-rule:evenodd;"
d="M 95.093281,66.636900
95.102415,66.590978
95.128428,66.552047
95.167359,66.526034
95.213281,66.516900
96.673281,66.516900
96.719203,66.526034
96.758134,66.552047
96.784147,66.590978
96.793281,66.636900
96.793281,67.596900
96.784147,67.642822
96.758134,67.681753
96.719203,67.707766
96.673281,67.716900
95.213281,67.716900
95.167359,67.707766
95.128428,67.681753
95.102415,67.642822
95.093281,67.596900
Z" /> 
<path style="fill:#000000; fill-opacity:1.000000; stroke:none;fill-rule:evenodd;"
d="M 87.993281,67.596900
87.984147,67.642822
87.958134,67.681753
87.919203,67.707766
87.873281,67.716900
86.413281,67.716900
86.367359,67.707766
86.328428,67.681753
86.302415,67.642822
86.293281,67.596900
86.293281,66.636900
86.302415,66.590978
86.328428,66.552047
86.367359,66.526034
86.413281,66.516900
87.873281,66.516900
87.919203,66.526034
87.958134,66.552047
87.984147,66.590978
87.993281,66.636900
Z" /> 
<path style="fill:#000000; fill-opacity:1.000000; stroke:none;fill-rule:evenodd;"
d="M 87.993281,68.676900
87.986430,68.711342
87.966921,68.740540
87.937723,68.760049
87.903281,68.766900
86.383281,68.766900
86.348839,68.760049
86.319641,68.740540
86.300132,68.711342
86.293281,68.676900
86.293281,67.956900
86.300132,67.922458
86.319641,67.893260
86.348839,67.873751
86.383281,67.866900
87.903281,67.866900
87.937723,67.873751
87.966921,67.893260
87.986430,67.922458
87.993281,67.956900
Z" /> 
<path style="fill:#000000; fill-opacity:1.000000; stroke:none;fill-rule:evenodd;"
d="M 87.993281,69.676900
87.986430,69.711342
87.966921,69.740540
87.937723,69.760049
87.903281,69.766900
86.383281,69.766900
86.348839,69.760049
86.319641,69.740540
86.300132,69.711342
86.293281,69.676900
86.293281,68.956900
86.300132,68.922458
86.319641,68.893260
86.348839,68.873751
86.383281,68.866900
87.903281,68.866900
87.937723,68.873751
87.966921,68.893260
87.986430,68.922458
87.993281,68.956900
Z" /> 
<path style="fill:#000000; fill-opacity:1.000000; stroke:none;fill-rule:evenodd;"
d="M 87.993281,70.676900
87.986430,70.711342
87.966921,70.740540
87.937723,70.760049
87.903281,70.766900
86.383281,70.766900
86.348839,70.760049
86.319641,70.740540
86.300132,70.711342
86.293281,70.676900
86.293281,69.956900
86.300132,69.922458
86.319641,69.893260
86.348839,69.873751
86.383281,69.866900
87.903281,69.866900
87.937723,69.873751
87.966921,69.893260
87.986430,69.922458
87.993281,69.956900
Z" /> 
<path style="fill:#000000; fill-opacity:1.000000; stroke:none;fill-rule:evenodd;"
d="M 87.993281,71.676900
87.986430,71.711342
87.966921,71.740540
87.937723,71.760049
87.903281,71.766900
86.383281,71.766900
86.348839,71.760049
86.319641,71.740540
86.300132,71.711342
86.293281,71.676900
86.293281,70.956900
86.300132,70.922458
86.319641,70.893260
86.348839,70.873751
86.383281,70.866900
87.903281,70.866900
87.937723,70.873751
87.966921,70.893260
87.986430,70.922458
87.993281,70.956900
Z" /> 
<path style="fill:#000000; fill-opacity:1.000000; stroke:none;fill-rule:evenodd;"
d="M 87.993281,72.676900
87.986430,72.711342
87.966921,72.740540
87.937723,72.760049
87.903281,72.766900
86.383281,72.766900
86.348839,72.760049
86.319641,72.740540
86.300132,72.711342
86.293281,72.676900
86.293281,71.956900
86.300132,71.922458
86.319641,71.893260
86.348839,71.873751
86.383281,71.866900
87.903281,71.866900
87.937723,71.873751
87.966921,71.893260
87.986430,71.922458
87.993281,71.956900
Z" /> 
<path style="fill:#000000; fill-opacity:1.000000; stroke:none;fill-rule:evenodd;"
d="M 87.993281,73.676900
87.986430,73.711342
87.966921,73.740540
87.937723,73.760049
87.903281,73.766900
86.383281,73.766900
86.348839,73.760049
86.319641,73.740540
86.300132,73.711342
86.293281,73.676900
86.293281,72.956900
86.300132,72.922458
86.319641,72.893260
86.348839,72.873751
86.383281,72.866900
87.903281,72.866900
87.937723,72.873751
87.966921,72.893260
87.986430,72.922458
87.993281,72.956900
Z" /> 
<path style="fill:#000000; fill-opacity:1.000000; stroke:none;fill-rule:evenodd;"
d="M 87.993281,74.676900
87.986430,74.711342
87.966921,74.740540
87.937723,74.760049
87.903281,74.766900
86.383281,74.766900
86.348839,74.760049
86.319641,74.740540
86.300132,74.711342
86.293281,74.676900
86.293281,73.956900
86.300132,73.922458
86.319641,73.893260
86.348839,73.873751
86.383281,73.866900
87.903281,73.866900
87.937723,73.873751
87.966921,73.893260
87.986430,73.922458
87.993281,73.956900
Z" /> 
<path style="fill:#000000; fill-opacity:1.000000; stroke:none;fill-rule:evenodd;"
d="M 87.993281,75.676900
87.986430,75.711342
87.966921,75.740540
87.937723,75.760049
87.903281,75.766900
86.383281,75.766900
86.348839,75.760049
86.319641,75.740540
86.300132,75.711342
86.293281,75.676900
86.293281,74.956900
86.300132,74.922458
86.319641,74.893260
86.348839,74.873751
86.383281,74.866900
87.903281,74.866900
87.937723,74.873751
87.966921,74.893260
87.986430,74.922458
87.993281,74.956900
Z" /> 
<path style="fill:#000000; fill-opacity:1.000000; stroke:none;fill-rule:evenodd;"
d="M 87.993281,76.676900
87.986430,76.711342
87.966921,76.740540
87.937723,76.760049
87.903281,76.766900
86.383281,76.766900
86.348839,76.760049
86.319641,76.740540
86.300132,76.711342
86.293281,76.676900
86.293281,75.956900
86.300132,75.922458
86.319641,75.893260
86.348839,75.873751
86.383281,75.866900
87.903281,75.866900
87.937723,75.873751
87.966921,75.893260
87.986430,75.922458
87.993281,75.956900
Z" /> 
<path style="fill:#000000; fill-opacity:1.000000; stroke:none;fill-rule:evenodd;"
d="M 87.993281,77.676900
87.986430,77.711342
87.966921,77.740540
87.937723,77.760049
87.903281,77.766900
86.383281,77.766900
86.348839,77.760049
86.319641,77.740540
86.300132,77.711342
86.293281,77.676900
86.293281,76.956900
86.300132,76.922458
86.319641,76.893260
86.348839,76.873751
86.383281,76.866900
87.903281,76.866900
87.937723,76.873751
87.966921,76.893260
87.986430,76.922458
87.993281,76.956900
Z" /> 
<path style="fill:#000000; fill-opacity:1.000000; stroke:none;fill-rule:evenodd;"
d="M 87.993281,78.676900
87.986430,78.711342
87.966921,78.740540
87.937723,78.760049
87.903281,78.766900
86.383281,78.766900
86.348839,78.760049
86.319641,78.740540
86.300132,78.711342
86.293281,78.676900
86.293281,77.956900
86.300132,77.922458
86.319641,77.893260
86.348839,77.873751
86.383281,77.866900
87.903281,77.866900
87.937723,77.873751
87.966921,77.893260
87.986430,77.922458
87.993281,77.956900
Z" /> 
<path style="fill:#000000; fill-opacity:1.000000; stroke:none;fill-rule:evenodd;"
d="M 87.993281,79.676900
87.986430,79.711342
87.966921,79.740540
87.937723,79.760049
87.903281,79.766900
86.383281,79.766900
86.348839,79.760049
86.319641,79.740540
86.300132,79.711342
86.293281,79.676900
86.293281,78.956900
86.300132,78.922458
86.319641,78.893260
86.348839,78.873751
86.383281,78.866900
87.903281,78.866900
87.937723,78.873751
87.966921,78.893260
87.986430,78.922458
87.993281,78.956900
Z" /> 
<path style="fill:#000000; fill-opacity:1.000000; stroke:none;fill-rule:evenodd;"
d="M 89.903281,78.866900
89.937723,78.873751
89.966921,78.893260
89.986430,78.922458
89.993281,78.956900
89.993281,80.476900
89.986430,80.511342
89.966921,80.540540
89.937723,80.560049
89.903281,80.566900
89.183281,80.566900
89.148839,80.560049
89.119641,80.540540
89.100132,80.511342
89.093281,80.476900
89.093281,78.956900
89.100132,78.922458
89.119641,78.893260
89.148839,78.873751
89.183281,78.866900
Z" /> 
<path style="fill:#000000; fill-opacity:1.000000; stroke:none;fill-rule:evenodd;"
d="M 90.903281,78.866900
90.937723,78.873751
90.966921,78.893260
90.986430,78.922458
90.993281,78.956900
90.993281,80.476900
90.986430,80.511342
90.966921,80.540540
90.937723,80.560049
90.903281,80.566900
90.183281,80.566900
90.148839,80.560049
90.119641,80.540540
90.100132,80.511342
90.093281,80.476900
90.093281,78.956900
90.100132,78.922458
90.119641,78.893260
90.148839,78.873751
90.183281,78.866900
Z" /> 
<path style="fill:#000000; fill-opacity:1.000000; stroke:none;fill-rule:evenodd;"
d="M 91.903281,78.866900
91.937723,78.873751
91.966921,78.893260
91.986430,78.922458
91.993281,78.956900
91.993281,80.476900
91.986430,80.511342
91.966921,80.540540
91.937723,80.560049
91.903281,80.566900
91.183281,80.566900
91.148839,80.560049
91.119641,80.540540
91.100132,80.511342
91.093281,80.476900
91.093281,78.956900
91.100132,78.922458
91.119641,78.893260
91.148839,78.873751
91.183281,78.866900
Z" /> 
<path style="fill:#000000; fill-opacity:1.000000; stroke:none;fill-rule:evenodd;"
d="M 92.903281,78.866900
92.937723,78.873751
92.966921,78.893260
92.986430,78.922458
92.993281,78.956900
92.993281,80.476900
92.986430,80.511342
92.966921,80.540540
92.937723,80.560049
92.903281,80.566900
92.183281,80.566900
92.148839,80.560049
92.119641,80.540540
92.100132,80.511342
92.093281,80.476900
92.093281,78.956900
92.100132,78.922458
92.119641,78.893260
92.148839,78.873751
92.183281,78.866900
Z" /> 
<path style="fill:#000000; fill-opacity:1.000000; stroke:none;fill-rule:evenodd;"
d="M 93.903281,78.866900
93.937723,78.873751
93.966921,78.893260
93.986430,78.922458
93.993281,78.956900
93.993281,80.476900
93.986430,80.511342
93.966921,80.540540
93.937723,80.560049
93.903281,80.566900
93.183281,80.566900
93.148839,80.560049
93.119641,80.540540
93.100132,80.511342
93.093281,80.476900
93.093281,78.956900
93.100132,78.922458
93.119641,78.893260
93.148839,78.873751
93.183281,78.866900
Z" /> 
<path style="fill:#000000; fill-opacity:1.000000; stroke:none;fill-rule:evenodd;"
d="M 55.356600,36.232600
55.329812,36.227272
55.307103,36.212097
55.291928,36.189388
55.286600,36.162600
55.286600,35.602600
55.291928,35.575812
55.307103,35.553103
55.329812,35.537928
55.356600,35.532600
56.216600,35.532600
56.243388,35.537928
56.266097,35.553103
56.281272,35.575812
56.286600,35.602600
56.286600,36.162600
56.281272,36.189388
56.266097,36.212097
56.243388,36.227272
56.216600,36.232600
Z" /> 
<path style="fill:#000000; fill-opacity:1.000000; stroke:none;fill-rule:evenodd;"
d="M 55.356600,37.132600
55.329812,37.127272
55.307103,37.112097
55.291928,37.089388
55.286600,37.062600
55.286600,36.502600
55.291928,36.475812
55.307103,36.453103
55.329812,36.437928
55.356600,36.432600
56.216600,36.432600
56.243388,36.437928
56.266097,36.453103
56.281272,36.475812
56.286600,36.502600
56.286600,37.062600
56.281272,37.089388
56.266097,37.112097
56.243388,37.127272
56.216600,37.132600
Z" /> 
<path style="fill:#000000; fill-opacity:1.000000; stroke:none;fill-rule:evenodd;"
d="M 55.356600,38.032600
55.329812,38.027272
55.307103,38.012097
55.291928,37.989388
55.286600,37.962600
55.286600,37.402600
55.291928,37.375812
55.307103,37.353103
55.329812,37.337928
55.356600,37.332600
56.216600,37.332600
56.243388,37.337928
56.266097,37.353103
56.281272,37.375812
56.286600,37.402600
56.286600,37.962600
56.281272,37.989388
56.266097,38.012097
56.243388,38.027272
56.216600,38.032600
Z" /> 
<path style="fill:#000000; fill-opacity:1.000000; stroke:none;fill-rule:evenodd;"
d="M 55.356600,38.932600
55.329812,38.927272
55.307103,38.912097
55.291928,38.889388
55.286600,38.862600
55.286600,38.302600
55.291928,38.275812
55.307103,38.253103
55.329812,38.237928
55.356600,38.232600
56.216600,38.232600
56.243388,38.237928
56.266097,38.253103
56.281272,38.275812
56.286600,38.302600
56.286600,38.862600
56.281272,38.889388
56.266097,38.912097
56.243388,38.927272
56.216600,38.932600
Z" /> 
<path style="fill:#000000; fill-opacity:1.000000; stroke:none;fill-rule:evenodd;"
d="M 57.416600,38.232600
57.443388,38.237928
57.466097,38.253103
57.481272,38.275812
57.486600,38.302600
57.486600,38.862600
57.481272,38.889388
57.466097,38.912097
57.443388,38.927272
57.416600,38.932600
56.556600,38.932600
56.529812,38.927272
56.507103,38.912097
56.491928,38.889388
56.486600,38.862600
56.486600,38.302600
56.491928,38.275812
56.507103,38.253103
56.529812,38.237928
56.556600,38.232600
Z" /> 
<path style="fill:#000000; fill-opacity:1.000000; stroke:none;fill-rule:evenodd;"
d="M 57.416600,37.332600
57.443388,37.337928
57.466097,37.353103
57.481272,37.375812
57.486600,37.402600
57.486600,37.962600
57.481272,37.989388
57.466097,38.012097
57.443388,38.027272
57.416600,38.032600
56.556600,38.032600
56.529812,38.027272
56.507103,38.012097
56.491928,37.989388
56.486600,37.962600
56.486600,37.402600
56.491928,37.375812
56.507103,37.353103
56.529812,37.337928
56.556600,37.332600
Z" /> 
<path style="fill:#000000; fill-opacity:1.000000; stroke:none;fill-rule:evenodd;"
d="M 57.416600,36.432600
57.443388,36.437928
57.466097,36.453103
57.481272,36.475812
57.486600,36.502600
57.486600,37.062600
57.481272,37.089388
57.466097,37.112097
57.443388,37.127272
57.416600,37.132600
56.556600,37.132600
56.529812,37.127272
56.507103,37.112097
56.491928,37.089388
56.486600,37.062600
56.486600,36.502600
56.491928,36.475812
56.507103,36.453103
56.529812,36.437928
56.556600,36.432600
Z" /> 
<path style="fill:#000000; fill-opacity:1.000000; stroke:none;fill-rule:evenodd;"
d="M 57.416600,35.532600
57.443388,35.537928
57.466097,35.553103
57.481272,35.575812
57.486600,35.602600
57.486600,36.162600
57.481272,36.189388
57.466097,36.212097
57.443388,36.227272
57.416600,36.232600
56.556600,36.232600
56.529812,36.227272
56.507103,36.212097
56.491928,36.189388
56.486600,36.162600
56.486600,35.602600
56.491928,35.575812
56.507103,35.553103
56.529812,35.537928
56.556600,35.532600
Z" /> 
<path style="fill:#000000; fill-opacity:1.000000; stroke:none;fill-rule:evenodd;"
d="M 50.165400,65.858400
50.173012,65.820132
50.194689,65.787689
50.227132,65.766012
50.265400,65.758400
52.865400,65.758400
52.903668,65.766012
52.936111,65.787689
52.957788,65.820132
52.965400,65.858400
52.965400,66.858400
52.957788,66.896668
52.936111,66.929111
52.903668,66.950788
52.865400,66.958400
50.265400,66.958400
50.227132,66.950788
50.194689,66.929111
50.173012,66.896668
50.165400,66.858400
Z" /> 
<path style="fill:#000000; fill-opacity:1.000000; stroke:none;fill-rule:evenodd;"
d="M 67.465400,77.658400
67.457788,77.696668
67.436111,77.729111
67.403668,77.750788
67.365400,77.758400
64.765400,77.758400
64.727132,77.750788
64.694689,77.729111
64.673012,77.696668
64.665400,77.658400
64.665400,76.658400
64.673012,76.620132
64.694689,76.587689
64.727132,76.566012
64.765400,76.558400
67.365400,76.558400
67.403668,76.566012
67.436111,76.587689
67.457788,76.620132
67.465400,76.658400
Z" /> 
<path style="fill:#000000; fill-opacity:1.000000; stroke:none;fill-rule:evenodd;"
d="M 67.465400,81.258400
67.457788,81.296668
67.436111,81.329111
67.403668,81.350788
67.365400,81.358400
64.765400,81.358400
64.727132,81.350788
64.694689,81.329111
64.673012,81.296668
64.665400,81.258400
64.665400,80.258400
64.673012,80.220132
64.694689,80.187689
64.727132,80.166012
64.765400,80.158400
67.365400,80.158400
67.403668,80.166012
67.436111,80.187689
67.457788,80.220132
67.465400,80.258400
Z" /> 
<path style="fill:#000000; fill-opacity:1.000000; stroke:none;fill-rule:evenodd;"
d="M 50.165400,67.658400
50.173012,67.620132
50.194689,67.587689
50.227132,67.566012
50.265400,67.558400
52.865400,67.558400
52.903668,67.566012
52.936111,67.587689
52.957788,67.620132
52.965400,67.658400
52.965400,68.658400
52.957788,68.696668
52.936111,68.729111
52.903668,68.750788
52.865400,68.758400
50.265400,68.758400
50.227132,68.750788
50.194689,68.729111
50.173012,68.696668
50.165400,68.658400
Z" /> 
<path style="fill:#000000; fill-opacity:1.000000; stroke:none;fill-rule:evenodd;"
d="M 50.165400,69.458400
50.173012,69.420132
50.194689,69.387689
50.227132,69.366012
50.265400,69.358400
52.865400,69.358400
52.903668,69.366012
52.936111,69.387689
52.957788,69.420132
52.965400,69.458400
52.965400,70.458400
52.957788,70.496668
52.936111,70.529111
52.903668,70.550788
52.865400,70.558400
50.265400,70.558400
50.227132,70.550788
50.194689,70.529111
50.173012,70.496668
50.165400,70.458400
Z" /> 
<path style="fill:#000000; fill-opacity:1.000000; stroke:none;fill-rule:evenodd;"
d="M 50.165400,71.258400
50.173012,71.220132
50.194689,71.187689
50.227132,71.166012
50.265400,71.158400
52.865400,71.158400
52.903668,71.166012
52.936111,71.187689
52.957788,71.220132
52.965400,71.258400
52.965400,72.258400
52.957788,72.296668
52.936111,72.329111
52.903668,72.350788
52.865400,72.358400
50.265400,72.358400
50.227132,72.350788
50.194689,72.329111
50.173012,72.296668
50.165400,72.258400
Z" /> 
<path style="fill:#000000; fill-opacity:1.000000; stroke:none;fill-rule:evenodd;"
d="M 50.165400,73.058400
50.173012,73.020132
50.194689,72.987689
50.227132,72.966012
50.265400,72.958400
52.865400,72.958400
52.903668,72.966012
52.936111,72.987689
52.957788,73.020132
52.965400,73.058400
52.965400,74.058400
52.957788,74.096668
52.936111,74.129111
52.903668,74.150788
52.865400,74.158400
50.265400,74.158400
50.227132,74.150788
50.194689,74.129111
50.173012,74.096668
50.165400,74.058400
Z" /> 
<path style="fill:#000000; fill-opacity:1.000000; stroke:none;fill-rule:evenodd;"
d="M 50.165400,74.858400
50.173012,74.820132
50.194689,74.787689
50.227132,74.766012
50.265400,74.758400
52.865400,74.758400
52.903668,74.766012
52.936111,74.787689
52.957788,74.820132
52.965400,74.858400
52.965400,75.858400
52.957788,75.896668
52.936111,75.929111
52.903668,75.950788
52.865400,75.958400
50.265400,75.958400
50.227132,75.950788
50.194689,75.929111
50.173012,75.896668
50.165400,75.858400
Z" /> 
<path style="fill:#000000; fill-opacity:1.000000; stroke:none;fill-rule:evenodd;"
d="M 50.165400,76.658400
50.173012,76.620132
50.194689,76.587689
50.227132,76.566012
50.265400,76.558400
52.865400,76.558400
52.903668,76.566012
52.936111,76.587689
52.957788,76.620132
52.965400,76.658400
52.965400,77.658400
52.957788,77.696668
52.936111,77.729111
52.903668,77.750788
52.865400,77.758400
50.265400,77.758400
50.227132,77.750788
50.194689,77.729111
50.173012,77.696668
50.165400,77.658400
Z" /> 
<path style="fill:#000000; fill-opacity:1.000000; stroke:none;fill-rule:evenodd;"
d="M 50.165400,78.458400
50.173012,78.420132
50.194689,78.387689
50.227132,78.366012
50.265400,78.358400
52.865400,78.358400
52.903668,78.366012
52.936111,78.387689
52.957788,78.420132
52.965400,78.458400
52.965400,79.458400
52.957788,79.496668
52.936111,79.529111
52.903668,79.550788
52.865400,79.558400
50.265400,79.558400
50.227132,79.550788
50.194689,79.529111
50.173012,79.496668
50.165400,79.458400
Z" /> 
<path style="fill:#000000; fill-opacity:1.000000; stroke:none;fill-rule:evenodd;"
d="M 50.165400,80.258400
50.173012,80.220132
50.194689,80.187689
50.227132,80.166012
50.265400,80.158400
52.865400,80.158400
52.903668,80.166012
52.936111,80.187689
52.957788,80.220132
52.965400,80.258400
52.965400,81.258400
52.957788,81.296668
52.936111,81.329111
52.903668,81.350788
52.865400,81.358400
50.265400,81.358400
50.227132,81.350788
50.194689,81.329111
50.173012,81.296668
50.165400,81.258400
Z" /> 
<path style="fill:#000000; fill-opacity:1.000000; stroke:none;fill-rule:evenodd;"
d="M 67.465400,79.458400
67.457788,79.496668
67.436111,79.529111
67.403668,79.550788
67.365400,79.558400
64.765400,79.558400
64.727132,79.550788
64.694689,79.529111
64.673012,79.496668
64.665400,79.458400
64.665400,78.458400
64.673012,78.420132
64.694689,78.387689
64.727132,78.366012
64.765400,78.358400
67.365400,78.358400
67.403668,78.366012
67.436111,78.387689
67.457788,78.420132
67.465400,78.458400
Z" /> 
<path style="fill:#000000; fill-opacity:1.000000; stroke:none;fill-rule:evenodd;"
d="M 67.465400,75.858400
67.457788,75.896668
67.436111,75.929111
67.403668,75.950788
67.365400,75.958400
64.765400,75.958400
64.727132,75.950788
64.694689,75.929111
64.673012,75.896668
64.665400,75.858400
64.665400,74.858400
64.673012,74.820132
64.694689,74.787689
64.727132,74.766012
64.765400,74.758400
67.365400,74.758400
67.403668,74.766012
67.436111,74.787689
67.457788,74.820132
67.465400,74.858400
Z" /> 
<path style="fill:#000000; fill-opacity:1.000000; stroke:none;fill-rule:evenodd;"
d="M 67.465400,74.058400
67.457788,74.096668
67.436111,74.129111
67.403668,74.150788
67.365400,74.158400
64.765400,74.158400
64.727132,74.150788
64.694689,74.129111
64.673012,74.096668
64.665400,74.058400
64.665400,73.058400
64.673012,73.020132
64.694689,72.987689
64.727132,72.966012
64.765400,72.958400
67.365400,72.958400
67.403668,72.966012
67.436111,72.987689
67.457788,73.020132
67.465400,73.058400
Z" /> 
<path style="fill:#000000; fill-opacity:1.000000; stroke:none;fill-rule:evenodd;"
d="M 67.465400,72.258400
67.457788,72.296668
67.436111,72.329111
67.403668,72.350788
67.365400,72.358400
64.765400,72.358400
64.727132,72.350788
64.694689,72.329111
64.673012,72.296668
64.665400,72.258400
64.665400,71.258400
64.673012,71.220132
64.694689,71.187689
64.727132,71.166012
64.765400,71.158400
67.365400,71.158400
67.403668,71.166012
67.436111,71.187689
67.457788,71.220132
67.465400,71.258400
Z" /> 
<path style="fill:#000000; fill-opacity:1.000000; stroke:none;fill-rule:evenodd;"
d="M 67.465400,70.458400
67.457788,70.496668
67.436111,70.529111
67.403668,70.550788
67.365400,70.558400
64.765400,70.558400
64.727132,70.550788
64.694689,70.529111
64.673012,70.496668
64.665400,70.458400
64.665400,69.458400
64.673012,69.420132
64.694689,69.387689
64.727132,69.366012
64.765400,69.358400
67.365400,69.358400
67.403668,69.366012
67.436111,69.387689
67.457788,69.420132
67.465400,69.458400
Z" /> 
<path style="fill:#000000; fill-opacity:1.000000; stroke:none;fill-rule:evenodd;"
d="M 67.465400,68.658400
67.457788,68.696668
67.436111,68.729111
67.403668,68.750788
67.365400,68.758400
64.765400,68.758400
64.727132,68.750788
64.694689,68.729111
64.673012,68.696668
64.665400,68.658400
64.665400,67.658400
64.673012,67.620132
64.694689,67.587689
64.727132,67.566012
64.765400,67.558400
67.365400,67.558400
67.403668,67.566012
67.436111,67.587689
67.457788,67.620132
67.465400,67.658400
Z" /> 
<path style="fill:#000000; fill-opacity:1.000000; stroke:none;fill-rule:evenodd;"
d="M 67.465400,66.858400
67.457788,66.896668
67.436111,66.929111
67.403668,66.950788
67.365400,66.958400
64.765400,66.958400
64.727132,66.950788
64.694689,66.929111
64.673012,66.896668
64.665400,66.858400
64.665400,65.858400
64.673012,65.820132
64.694689,65.787689
64.727132,65.766012
64.765400,65.758400
67.365400,65.758400
67.403668,65.766012
67.436111,65.787689
67.457788,65.820132
67.465400,65.858400
Z" /> 
<path style="fill:#000000; fill-opacity:1.000000; stroke:none;fill-rule:evenodd;"
d="M 33.928941,80.409250
33.909911,80.504921
33.855718,80.586027
33.774612,80.640220
33.678941,80.659250
32.178941,80.659250
32.083270,80.640220
32.002164,80.586027
31.947971,80.504921
31.928941,80.409250
31.928941,79.909250
31.947971,79.813579
32.002164,79.732473
32.083270,79.678280
32.178941,79.659250
33.678941,79.659250
33.774612,79.678280
33.855718,79.732473
33.909911,79.813579
33.928941,79.909250
Z" /> 
<path style="fill:#000000; fill-opacity:1.000000; stroke:none;fill-rule:evenodd;"
d="M 33.928941,79.309250
33.909911,79.404921
33.855718,79.486027
33.774612,79.540220
33.678941,79.559250
32.178941,79.559250
32.083270,79.540220
32.002164,79.486027
31.947971,79.404921
31.928941,79.309250
31.928941,78.809250
31.947971,78.713579
32.002164,78.632473
32.083270,78.578280
32.178941,78.559250
33.678941,78.559250
33.774612,78.578280
33.855718,78.632473
33.909911,78.713579
33.928941,78.809250
Z" /> 
<path style="fill:#000000; fill-opacity:1.000000; stroke:none;fill-rule:evenodd;"
d="M 33.928941,78.209250
33.909911,78.304921
33.855718,78.386027
33.774612,78.440220
33.678941,78.459250
32.178941,78.459250
32.083270,78.440220
32.002164,78.386027
31.947971,78.304921
31.928941,78.209250
31.928941,77.709250
31.947971,77.613579
32.002164,77.532473
32.083270,77.478280
32.178941,77.459250
33.678941,77.459250
33.774612,77.478280
33.855718,77.532473
33.909911,77.613579
33.928941,77.709250
Z" /> 
<path style="fill:#000000; fill-opacity:1.000000; stroke:none;fill-rule:evenodd;"
d="M 33.928941,77.109250
33.909911,77.204921
33.855718,77.286027
33.774612,77.340220
33.678941,77.359250
32.178941,77.359250
32.083270,77.340220
32.002164,77.286027
31.947971,77.204921
31.928941,77.109250
31.928941,76.609250
31.947971,76.513579
32.002164,76.432473
32.083270,76.378280
32.178941,76.359250
33.678941,76.359250
33.774612,76.378280
33.855718,76.432473
33.909911,76.513579
33.928941,76.609250
Z" /> 
<path style="fill:#000000; fill-opacity:1.000000; stroke:none;fill-rule:evenodd;"
d="M 33.928941,76.009250
33.909911,76.104921
33.855718,76.186027
33.774612,76.240220
33.678941,76.259250
32.178941,76.259250
32.083270,76.240220
32.002164,76.186027
31.947971,76.104921
31.928941,76.009250
31.928941,75.509250
31.947971,75.413579
32.002164,75.332473
32.083270,75.278280
32.178941,75.259250
33.678941,75.259250
33.774612,75.278280
33.855718,75.332473
33.909911,75.413579
33.928941,75.509250
Z" /> 
<path style="fill:#000000; fill-opacity:1.000000; stroke:none;fill-rule:evenodd;"
d="M 33.928941,74.909250
33.909911,75.004921
33.855718,75.086027
33.774612,75.140220
33.678941,75.159250
32.178941,75.159250
32.083270,75.140220
32.002164,75.086027
31.947971,75.004921
31.928941,74.909250
31.928941,74.409250
31.947971,74.313579
32.002164,74.232473
32.083270,74.178280
32.178941,74.159250
33.678941,74.159250
33.774612,74.178280
33.855718,74.232473
33.909911,74.313579
33.928941,74.409250
Z" /> 
<path style="fill:#000000; fill-opacity:1.000000; stroke:none;fill-rule:evenodd;"
d="M 33.928941,73.809250
33.909911,73.904921
33.855718,73.986027
33.774612,74.040220
33.678941,74.059250
32.178941,74.059250
32.083270,74.040220
32.002164,73.986027
31.947971,73.904921
31.928941,73.809250
31.928941,73.309250
31.947971,73.213579
32.002164,73.132473
32.083270,73.078280
32.178941,73.059250
33.678941,73.059250
33.774612,73.078280
33.855718,73.132473
33.909911,73.213579
33.928941,73.309250
Z" /> 
<path style="fill:#000000; fill-opacity:1.000000; stroke:none;fill-rule:evenodd;"
d="M 33.928941,70.809250
33.909911,70.904921
33.855718,70.986027
33.774612,71.040220
33.678941,71.059250
32.178941,71.059250
32.083270,71.040220
32.002164,70.986027
31.947971,70.904921
31.928941,70.809250
31.928941,70.309250
31.947971,70.213579
32.002164,70.132473
32.083270,70.078280
32.178941,70.059250
33.678941,70.059250
33.774612,70.078280
33.855718,70.132473
33.909911,70.213579
33.928941,70.309250
Z" /> 
<path style="fill:#000000; fill-opacity:1.000000; stroke:none;fill-rule:evenodd;"
d="M 33.928941,69.709250
33.909911,69.804921
33.855718,69.886027
33.774612,69.940220
33.678941,69.959250
32.178941,69.959250
32.083270,69.940220
32.002164,69.886027
31.947971,69.804921
31.928941,69.709250
31.928941,69.209250
31.947971,69.113579
32.002164,69.032473
32.083270,68.978280
32.178941,68.959250
33.678941,68.959250
33.774612,68.978280
33.855718,69.032473
33.909911,69.113579
33.928941,69.209250
Z" /> 
<path style="fill:#000000; fill-opacity:1.000000; stroke:none;fill-rule:evenodd;"
d="M 33.928941,68.609250
33.909911,68.704921
33.855718,68.786027
33.774612,68.840220
33.678941,68.859250
32.178941,68.859250
32.083270,68.840220
32.002164,68.786027
31.947971,68.704921
31.928941,68.609250
31.928941,68.109250
31.947971,68.013579
32.002164,67.932473
32.083270,67.878280
32.178941,67.859250
33.678941,67.859250
33.774612,67.878280
33.855718,67.932473
33.909911,68.013579
33.928941,68.109250
Z" /> 
<path style="fill:#000000; fill-opacity:1.000000; stroke:none;fill-rule:evenodd;"
d="M 33.928941,67.509250
33.909911,67.604921
33.855718,67.686027
33.774612,67.740220
33.678941,67.759250
32.178941,67.759250
32.083270,67.740220
32.002164,67.686027
31.947971,67.604921
31.928941,67.509250
31.928941,67.009250
31.947971,66.913579
32.002164,66.832473
32.083270,66.778280
32.178941,66.759250
33.678941,66.759250
33.774612,66.778280
33.855718,66.832473
33.909911,66.913579
33.928941,67.009250
Z" /> 
<path style="fill:#000000; fill-opacity:1.000000; stroke:none;fill-rule:evenodd;"
d="M 33.928941,66.409250
33.909911,66.504921
33.855718,66.586027
33.774612,66.640220
33.678941,66.659250
32.178941,66.659250
32.083270,66.640220
32.002164,66.586027
31.947971,66.504921
31.928941,66.409250
31.928941,65.909250
31.947971,65.813579
32.002164,65.732473
32.083270,65.678280
32.178941,65.659250
33.678941,65.659250
33.774612,65.678280
33.855718,65.732473
33.909911,65.813579
33.928941,65.909250
Z" /> 
<path style="fill:#000000; fill-opacity:1.000000; stroke:none;fill-rule:evenodd;"
d="M 21.928941,66.409250
21.909911,66.504921
21.855718,66.586027
21.774612,66.640220
21.678941,66.659250
20.178941,66.659250
20.083270,66.640220
20.002164,66.586027
19.947971,66.504921
19.928941,66.409250
19.928941,65.909250
19.947971,65.813579
20.002164,65.732473
20.083270,65.678280
20.178941,65.659250
21.678941,65.659250
21.774612,65.678280
21.855718,65.732473
21.909911,65.813579
21.928941,65.909250
Z" /> 
<path style="fill:#000000; fill-opacity:1.000000; stroke:none;fill-rule:evenodd;"
d="M 21.928941,67.509250
21.909911,67.604921
21.855718,67.686027
21.774612,67.740220
21.678941,67.759250
20.178941,67.759250
20.083270,67.740220
20.002164,67.686027
19.947971,67.604921
19.928941,67.509250
19.928941,67.009250
19.947971,66.913579
20.002164,66.832473
20.083270,66.778280
20.178941,66.759250
21.678941,66.759250
21.774612,66.778280
21.855718,66.832473
21.909911,66.913579
21.928941,67.009250
Z" /> 
<path style="fill:#000000; fill-opacity:1.000000; stroke:none;fill-rule:evenodd;"
d="M 21.928941,68.609250
21.909911,68.704921
21.855718,68.786027
21.774612,68.840220
21.678941,68.859250
20.178941,68.859250
20.083270,68.840220
20.002164,68.786027
19.947971,68.704921
19.928941,68.609250
19.928941,68.109250
19.947971,68.013579
20.002164,67.932473
20.083270,67.878280
20.178941,67.859250
21.678941,67.859250
21.774612,67.878280
21.855718,67.932473
21.909911,68.013579
21.928941,68.109250
Z" /> 
<path style="fill:#000000; fill-opacity:1.000000; stroke:none;fill-rule:evenodd;"
d="M 21.928941,69.709250
21.909911,69.804921
21.855718,69.886027
21.774612,69.940220
21.678941,69.959250
20.178941,69.959250
20.083270,69.940220
20.002164,69.886027
19.947971,69.804921
19.928941,69.709250
19.928941,69.209250
19.947971,69.113579
20.002164,69.032473
20.083270,68.978280
20.178941,68.959250
21.678941,68.959250
21.774612,68.978280
21.855718,69.032473
21.909911,69.113579
21.928941,69.209250
Z" /> 
<path style="fill:#000000; fill-opacity:1.000000; stroke:none;fill-rule:evenodd;"
d="M 21.928941,70.809250
21.909911,70.904921
21.855718,70.986027
21.774612,71.040220
21.678941,71.059250
20.178941,71.059250
20.083270,71.040220
20.002164,70.986027
19.947971,70.904921
19.928941,70.809250
19.928941,70.309250
19.947971,70.213579
20.002164,70.132473
20.083270,70.078280
20.178941,70.059250
21.678941,70.059250
21.774612,70.078280
21.855718,70.132473
21.909911,70.213579
21.928941,70.309250
Z" /> 
<path style="fill:#000000; fill-opacity:1.000000; stroke:none;fill-rule:evenodd;"
d="M 21.928941,73.809250
21.909911,73.904921
21.855718,73.986027
21.774612,74.040220
21.678941,74.059250
20.178941,74.059250
20.083270,74.040220
20.002164,73.986027
19.947971,73.904921
19.928941,73.809250
19.928941,73.309250
19.947971,73.213579
20.002164,73.132473
20.083270,73.078280
20.178941,73.059250
21.678941,73.059250
21.774612,73.078280
21.855718,73.132473
21.909911,73.213579
21.928941,73.309250
Z" /> 
<path style="fill:#000000; fill-opacity:1.000000; stroke:none;fill-rule:evenodd;"
d="M 21.928941,74.909250
21.909911,75.004921
21.855718,75.086027
21.774612,75.140220
21.678941,75.159250
20.178941,75.159250
20.083270,75.140220
20.002164,75.086027
19.947971,75.004921
19.928941,74.909250
19.928941,74.409250
19.947971,74.313579
20.002164,74.232473
20.083270,74.178280
20.178941,74.159250
21.678941,74.159250
21.774612,74.178280
21.855718,74.232473
21.909911,74.313579
21.928941,74.409250
Z" /> 
<path style="fill:#000000; fill-opacity:1.000000; stroke:none;fill-rule:evenodd;"
d="M 21.928941,76.009250
21.909911,76.104921
21.855718,76.186027
21.774612,76.240220
21.678941,76.259250
20.178941,76.259250
20.083270,76.240220
20.002164,76.186027
19.947971,76.104921
19.928941,76.009250
19.928941,75.509250
19.947971,75.413579
20.002164,75.332473
20.083270,75.278280
20.178941,75.259250
21.678941,75.259250
21.774612,75.278280
21.855718,75.332473
21.909911,75.413579
21.928941,75.509250
Z" /> 
<path style="fill:#000000; fill-opacity:1.000000; stroke:none;fill-rule:evenodd;"
d="M 21.928941,77.109250
21.909911,77.204921
21.855718,77.286027
21.774612,77.340220
21.678941,77.359250
20.178941,77.359250
20.083270,77.340220
20.002164,77.286027
19.947971,77.204921
19.928941,77.109250
19.928941,76.609250
19.947971,76.513579
20.002164,76.432473
20.083270,76.378280
20.178941,76.359250
21.678941,76.359250
21.774612,76.378280
21.855718,76.432473
21.909911,76.513579
21.928941,76.609250
Z" /> 
<path style="fill:#000000; fill-opacity:1.000000; stroke:none;fill-rule:evenodd;"
d="M 21.928941,78.209250
21.909911,78.304921
21.855718,78.386027
21.774612,78.440220
21.678941,78.459250
20.178941,78.459250
20.083270,78.440220
20.002164,78.386027
19.947971,78.304921
19.928941,78.209250
19.928941,77.709250
19.947971,77.613579
20.002164,77.532473
20.083270,77.478280
20.178941,77.459250
21.678941,77.459250
21.774612,77.478280
21.855718,77.532473
21.909911,77.613579
21.928941,77.709250
Z" /> 
<path style="fill:#000000; fill-opacity:1.000000; stroke:none;fill-rule:evenodd;"
d="M 21.928941,79.309250
21.909911,79.404921
21.855718,79.486027
21.774612,79.540220
21.678941,79.559250
20.178941,79.559250
20.083270,79.540220
20.002164,79.486027
19.947971,79.404921
19.928941,79.309250
19.928941,78.809250
19.947971,78.713579
20.002164,78.632473
20.083270,78.578280
20.178941,78.559250
21.678941,78.559250
21.774612,78.578280
21.855718,78.632473
21.909911,78.713579
21.928941,78.809250
Z" /> 
<path style="fill:#000000; fill-opacity:1.000000; stroke:none;fill-rule:evenodd;"
d="M 21.928941,80.409250
21.909911,80.504921
21.855718,80.586027
21.774612,80.640220
21.678941,80.659250
20.178941,80.659250
20.083270,80.640220
20.002164,80.586027
19.947971,80.504921
19.928941,80.409250
19.928941,79.909250
19.947971,79.813579
20.002164,79.732473
20.083270,79.678280
20.178941,79.659250
21.678941,79.659250
21.774612,79.678280
21.855718,79.732473
21.909911,79.813579
21.928941,79.909250
Z" /> 
<path style="fill:#000000; fill-opacity:1.000000; stroke:none;fill-rule:evenodd;"
d="M 19.121800,29.085600
19.129412,29.047332
19.151089,29.014889
19.183532,28.993212
19.221800,28.985600
21.721800,28.985600
21.760068,28.993212
21.792511,29.014889
21.814188,29.047332
21.821800,29.085600
21.821800,30.585600
21.814188,30.623868
21.792511,30.656311
21.760068,30.677988
21.721800,30.685600
19.221800,30.685600
19.183532,30.677988
19.151089,30.656311
19.129412,30.623868
19.121800,30.585600
Z" /> 
<path style="fill:#000000; fill-opacity:1.000000; stroke:none;fill-rule:evenodd;"
d="M 34.621800,27.085600
34.629412,27.047332
34.651089,27.014889
34.683532,26.993212
34.721800,26.985600
37.221800,26.985600
37.260068,26.993212
37.292511,27.014889
37.314188,27.047332
37.321800,27.085600
37.321800,28.585600
37.314188,28.623868
37.292511,28.656311
37.260068,28.677988
37.221800,28.685600
34.721800,28.685600
34.683532,28.677988
34.651089,28.656311
34.629412,28.623868
34.621800,28.585600
Z" /> 
<path style="fill:#000000; fill-opacity:1.000000; stroke:none;fill-rule:evenodd;"
d="M 34.621800,41.085600
34.629412,41.047332
34.651089,41.014889
34.683532,40.993212
34.721800,40.985600
37.221800,40.985600
37.260068,40.993212
37.292511,41.014889
37.314188,41.047332
37.321800,41.085600
37.321800,42.585600
37.314188,42.623868
37.292511,42.656311
37.260068,42.677988
37.221800,42.685600
34.721800,42.685600
34.683532,42.677988
34.651089,42.656311
34.629412,42.623868
34.621800,42.585600
Z" /> 
<path style="fill:#000000; fill-opacity:1.000000; stroke:none;fill-rule:evenodd;"
d="M 34.621800,39.085600
34.629412,39.047332
34.651089,39.014889
34.683532,38.993212
34.721800,38.985600
37.221800,38.985600
37.260068,38.993212
37.292511,39.014889
37.314188,39.047332
37.321800,39.085600
37.321800,40.585600
37.314188,40.623868
37.292511,40.656311
37.260068,40.677988
37.221800,40.685600
34.721800,40.685600
34.683532,40.677988
34.651089,40.656311
34.629412,40.623868
34.621800,40.585600
Z" /> 
<path style="fill:#000000; fill-opacity:1.000000; stroke:none;fill-rule:evenodd;"
d="M 34.621800,37.085600
34.629412,37.047332
34.651089,37.014889
34.683532,36.993212
34.721800,36.985600
37.221800,36.985600
37.260068,36.993212
37.292511,37.014889
37.314188,37.047332
37.321800,37.085600
37.321800,38.585600
37.314188,38.623868
37.292511,38.656311
37.260068,38.677988
37.221800,38.685600
34.721800,38.685600
34.683532,38.677988
34.651089,38.656311
34.629412,38.623868
34.621800,38.585600
Z" /> 
<path style="fill:#000000; fill-opacity:1.000000; stroke:none;fill-rule:evenodd;"
d="M 34.621800,35.085600
34.629412,35.047332
34.651089,35.014889
34.683532,34.993212
34.721800,34.985600
37.221800,34.985600
37.260068,34.993212
37.292511,35.014889
37.314188,35.047332
37.321800,35.085600
37.321800,36.585600
37.314188,36.623868
37.292511,36.656311
37.260068,36.677988
37.221800,36.685600
34.721800,36.685600
34.683532,36.677988
34.651089,36.656311
34.629412,36.623868
34.621800,36.585600
Z" /> 
<path style="fill:#000000; fill-opacity:1.000000; stroke:none;fill-rule:evenodd;"
d="M 34.621800,33.085600
34.629412,33.047332
34.651089,33.014889
34.683532,32.993212
34.721800,32.985600
37.221800,32.985600
37.260068,32.993212
37.292511,33.014889
37.314188,33.047332
37.321800,33.085600
37.321800,34.585600
37.314188,34.623868
37.292511,34.656311
37.260068,34.677988
37.221800,34.685600
34.721800,34.685600
34.683532,34.677988
34.651089,34.656311
34.629412,34.623868
34.621800,34.585600
Z" /> 
<path style="fill:#000000; fill-opacity:1.000000; stroke:none;fill-rule:evenodd;"
d="M 34.621800,31.085600
34.629412,31.047332
34.651089,31.014889
34.683532,30.993212
34.721800,30.985600
37.221800,30.985600
37.260068,30.993212
37.292511,31.014889
37.314188,31.047332
37.321800,31.085600
37.321800,32.585600
37.314188,32.623868
37.292511,32.656311
37.260068,32.677988
37.221800,32.685600
34.721800,32.685600
34.683532,32.677988
34.651089,32.656311
34.629412,32.623868
34.621800,32.585600
Z" /> 
<path style="fill:#000000; fill-opacity:1.000000; stroke:none;fill-rule:evenodd;"
d="M 34.621800,29.085600
34.629412,29.047332
34.651089,29.014889
34.683532,28.993212
34.721800,28.985600
37.221800,28.985600
37.260068,28.993212
37.292511,29.014889
37.314188,29.047332
37.321800,29.085600
37.321800,30.585600
37.314188,30.623868
37.292511,30.656311
37.260068,30.677988
37.221800,30.685600
34.721800,30.685600
34.683532,30.677988
34.651089,30.656311
34.629412,30.623868
34.621800,30.585600
Z" /> 
<path style="fill:#000000; fill-opacity:1.000000; stroke:none;fill-rule:evenodd;"
d="M 19.121800,41.085600
19.129412,41.047332
19.151089,41.014889
19.183532,40.993212
19.221800,40.985600
21.721800,40.985600
21.760068,40.993212
21.792511,41.014889
21.814188,41.047332
21.821800,41.085600
21.821800,42.585600
21.814188,42.623868
21.792511,42.656311
21.760068,42.677988
21.721800,42.685600
19.221800,42.685600
19.183532,42.677988
19.151089,42.656311
19.129412,42.623868
19.121800,42.585600
Z" /> 
<path style="fill:#000000; fill-opacity:1.000000; stroke:none;fill-rule:evenodd;"
d="M 19.121800,39.085600
19.129412,39.047332
19.151089,39.014889
19.183532,38.993212
19.221800,38.985600
21.721800,38.985600
21.760068,38.993212
21.792511,39.014889
21.814188,39.047332
21.821800,39.085600
21.821800,40.585600
21.814188,40.623868
21.792511,40.656311
21.760068,40.677988
21.721800,40.685600
19.221800,40.685600
19.183532,40.677988
19.151089,40.656311
19.129412,40.623868
19.121800,40.585600
Z" /> 
<path style="fill:#000000; fill-opacity:1.000000; stroke:none;fill-rule:evenodd;"
d="M 19.121800,37.085600
19.129412,37.047332
19.151089,37.014889
19.183532,36.993212
19.221800,36.985600
21.721800,36.985600
21.760068,36.993212
21.792511,37.014889
21.814188,37.047332
21.821800,37.085600
21.821800,38.585600
21.814188,38.623868
21.792511,38.656311
21.760068,38.677988
21.721800,38.685600
19.221800,38.685600
19.183532,38.677988
19.151089,38.656311
19.129412,38.623868
19.121800,38.585600
Z" /> 
<path style="fill:#000000; fill-opacity:1.000000; stroke:none;fill-rule:evenodd;"
d="M 19.121800,35.085600
19.129412,35.047332
19.151089,35.014889
19.183532,34.993212
19.221800,34.985600
21.721800,34.985600
21.760068,34.993212
21.792511,35.014889
21.814188,35.047332
21.821800,35.085600
21.821800,36.585600
21.814188,36.623868
21.792511,36.656311
21.760068,36.677988
21.721800,36.685600
19.221800,36.685600
19.183532,36.677988
19.151089,36.656311
19.129412,36.623868
19.121800,36.585600
Z" /> 
<path style="fill:#000000; fill-opacity:1.000000; stroke:none;fill-rule:evenodd;"
d="M 19.121800,33.085600
19.129412,33.047332
19.151089,33.014889
19.183532,32.993212
19.221800,32.985600
21.721800,32.985600
21.760068,32.993212
21.792511,33.014889
21.814188,33.047332
21.821800,33.085600
21.821800,34.585600
21.814188,34.623868
21.792511,34.656311
21.760068,34.677988
21.721800,34.685600
19.221800,34.685600
19.183532,34.677988
19.151089,34.656311
19.129412,34.623868
19.121800,34.585600
Z" /> 
<path style="fill:#000000; fill-opacity:1.000000; stroke:none;fill-rule:evenodd;"
d="M 19.121800,31.085600
19.129412,31.047332
19.151089,31.014889
19.183532,30.993212
19.221800,30.985600
21.721800,30.985600
21.760068,30.993212
21.792511,31.014889
21.814188,31.047332
21.821800,31.085600
21.821800,32.585600
21.814188,32.623868
21.792511,32.656311
21.760068,32.677988
21.721800,32.685600
19.221800,32.685600
19.183532,32.677988
19.151089,32.656311
19.129412,32.623868
19.121800,32.585600
Z" /> 
<path style="fill:#000000; fill-opacity:1.000000; stroke:none;fill-rule:evenodd;"
d="M 19.121800,27.085600
19.129412,27.047332
19.151089,27.014889
19.183532,26.993212
19.221800,26.985600
21.721800,26.985600
21.760068,26.993212
21.792511,27.014889
21.814188,27.047332
21.821800,27.085600
21.821800,28.585600
21.814188,28.623868
21.792511,28.656311
21.760068,28.677988
21.721800,28.685600
19.221800,28.685600
19.183532,28.677988
19.151089,28.656311
19.129412,28.623868
19.121800,28.585600
Z" /> 
</g> 
</svg>
